<?xml version="1.0" standalone="no"?>
<!DOCTYPE svg PUBLIC "-//W3C//DTD SVG 20010904//EN"
 "http://www.w3.org/TR/2001/REC-SVG-20010904/DTD/svg10.dtd">
<svg version="1.0" xmlns="http://www.w3.org/2000/svg"
 width="1024.000000pt" height="1024.000000pt" viewBox="0 0 1024.000000 1024.000000"
 preserveAspectRatio="xMidYMid meet">
<metadata>
Created by potrace 1.14, written by Peter Selinger 2001-2017
</metadata>
<g transform="translate(0.000000,1024.000000) scale(0.100000,-0.100000)"
fill="#ffffff" stroke="none">
<path d="M3435 8941 c6 -11 4 -13 -8 -8 -10 4 -17 1 -17 -6 0 -8 -4 -6 -10 3
-5 8 -10 10 -10 4 0 -6 -10 -11 -22 -10 -13 1 -26 -3 -30 -9 -5 -6 -8 -5 -8 3
0 11 -3 10 -14 -1 -8 -8 -26 -13 -40 -12 -14 2 -26 0 -26 -5 0 -5 -8 -7 -17
-5 -10 1 -26 -7 -36 -19 -10 -11 -16 -14 -12 -6 4 8 -2 6 -12 -6 -10 -11 -25
-18 -32 -16 -8 3 -11 0 -7 -6 3 -5 -1 -13 -10 -16 -8 -3 -13 -10 -10 -15 3 -5
-2 -8 -12 -7 -11 1 -16 -5 -14 -18 3 -14 -1 -17 -12 -13 -11 5 -16 0 -16 -13
0 -11 -6 -19 -12 -17 -7 1 -12 -4 -10 -12 2 -8 -3 -11 -11 -8 -8 3 -13 -3 -14
-15 -1 -11 -14 -31 -28 -44 -15 -13 -23 -29 -19 -36 4 -7 3 -8 -4 -4 -7 4 -12
1 -12 -9 0 -9 -4 -13 -10 -10 -5 3 -10 -4 -10 -15 0 -15 -5 -20 -14 -17 -11 4
-13 -1 -10 -18 3 -18 1 -23 -10 -19 -8 3 -17 0 -22 -7 -5 -8 -3 -10 6 -4 10 6
12 4 7 -9 -4 -10 -7 -20 -7 -22 0 -3 -4 -2 -10 1 -5 3 -10 -3 -10 -15 0 -12
-4 -18 -10 -15 -5 3 -7 0 -4 -8 3 -8 0 -18 -7 -23 -8 -5 -10 -3 -4 6 6 9 4 11
-4 6 -7 -5 -10 -10 -8 -13 3 -2 -1 -16 -8 -30 -8 -15 -11 -31 -8 -36 3 -6 1
-7 -5 -3 -7 4 -12 1 -12 -8 0 -9 -9 -25 -20 -36 -11 -11 -17 -20 -12 -20 4 0
-2 -8 -13 -17 -16 -13 -17 -15 -2 -10 24 9 21 0 -10 -30 -16 -15 -22 -23 -15
-19 6 4 12 3 12 -3 0 -5 -6 -11 -12 -13 -7 -3 -13 -13 -13 -24 0 -10 -5 -18
-12 -17 -7 2 -10 -4 -7 -12 4 -9 0 -15 -7 -15 -11 0 -11 -3 1 -10 11 -7 11
-10 2 -10 -8 0 -10 -5 -6 -12 6 -10 5 -10 -7 -1 -14 11 -16 8 -14 -18 1 -19
-2 -28 -10 -26 -6 3 -12 -7 -13 -25 -1 -16 -13 -41 -26 -55 -13 -14 -22 -32
-19 -38 2 -7 -1 -16 -7 -20 -8 -5 -8 -10 0 -20 8 -10 7 -13 -7 -11 -12 1 -18
-7 -20 -28 -1 -16 -7 -34 -14 -40 -9 -8 -10 -7 -4 3 6 10 4 12 -4 6 -9 -5 -10
-10 -2 -18 13 -13 15 -30 2 -23 -5 3 -15 -2 -22 -11 -8 -10 -9 -14 -2 -10 8 5
11 1 10 -12 0 -11 -5 -17 -9 -15 -4 3 -8 0 -8 -6 0 -6 -5 -8 -12 -4 -9 5 -9 2
1 -9 12 -15 11 -17 -4 -17 -14 0 -15 -3 -5 -15 7 -8 8 -15 3 -15 -12 0 -32
-57 -28 -80 2 -12 -1 -17 -9 -14 -8 3 -16 -4 -19 -15 -3 -12 -1 -21 4 -21 6 0
4 -6 -3 -14 -7 -8 -17 -11 -23 -8 -5 3 -4 -2 4 -11 8 -11 9 -17 3 -17 -7 0 -9
-7 -5 -17 4 -11 3 -14 -5 -9 -8 5 -10 2 -6 -8 3 -9 2 -16 -4 -16 -6 0 -9 -8
-8 -17 2 -10 -4 -24 -13 -31 -10 -8 -10 -11 -2 -6 11 5 13 3 8 -10 -4 -10 -7
-20 -7 -22 0 -3 -4 -2 -10 1 -5 3 -10 1 -10 -4 0 -6 5 -11 11 -11 8 0 8 -4 0
-14 -9 -11 -9 -15 1 -19 10 -4 10 -6 1 -6 -7 -1 -13 -7 -13 -15 0 -8 -6 -17
-12 -19 -10 -4 -10 -6 0 -6 6 -1 12 -6 12 -12 0 -5 -5 -7 -12 -3 -7 5 -9 1 -6
-13 3 -12 2 -27 -3 -34 -5 -8 -3 -17 4 -21 9 -6 9 -8 0 -8 -6 0 -9 -9 -6 -20
3 -13 0 -20 -8 -20 -12 0 -12 -2 0 -9 9 -6 10 -11 2 -15 -16 -10 -13 -24 7
-29 15 -4 14 -5 -2 -6 -20 -1 -20 -1 0 -16 17 -13 17 -14 2 -15 -10 0 -18 -5
-18 -10 0 -6 3 -9 8 -8 4 2 9 -1 10 -7 2 -5 8 -15 14 -22 5 -7 7 -16 4 -22 -3
-5 0 -12 6 -14 10 -4 10 -6 -1 -6 -9 -1 -6 -7 8 -18 12 -10 22 -30 23 -45 2
-18 8 -28 18 -28 13 0 13 -1 0 -10 -10 -6 -11 -10 -2 -10 6 0 12 -9 12 -21 0
-13 4 -18 13 -13 7 5 6 0 -3 -11 -8 -10 -10 -16 -5 -13 6 4 21 -10 34 -29 12
-19 18 -32 12 -29 -7 5 -8 1 -5 -9 4 -10 13 -14 23 -10 13 5 13 4 4 -6 -10
-10 -9 -15 5 -26 12 -10 12 -12 2 -8 -12 5 -12 4 1 -7 9 -7 14 -19 12 -25 -3
-7 3 -13 14 -13 15 0 16 -2 3 -10 -13 -8 -13 -10 2 -10 11 0 15 -7 13 -25 -2
-20 1 -23 11 -14 10 8 12 6 9 -10 -2 -12 0 -19 6 -16 5 4 9 -3 9 -13 0 -11 7
-25 15 -32 8 -7 13 -16 10 -20 -3 -5 4 -11 15 -15 11 -3 20 -10 20 -15 0 -5
-8 -7 -17 -4 -10 3 -8 -1 5 -8 12 -8 19 -17 16 -21 -4 -4 -2 -7 5 -7 7 0 9 -4
6 -10 -3 -5 2 -10 12 -11 10 0 13 -3 6 -6 -8 -3 -4 -13 12 -29 23 -23 29 -37
26 -56 0 -5 4 -8 10 -8 5 0 7 -4 4 -10 -3 -5 2 -10 12 -10 15 0 16 -2 3 -10
-13 -8 -12 -10 3 -10 9 0 17 -6 17 -14 0 -8 6 -17 13 -19 8 -4 8 -6 -3 -6 -10
-1 -8 -6 8 -17 12 -8 22 -20 22 -25 0 -6 7 -17 15 -26 8 -8 13 -19 10 -24 -4
-5 -2 -9 3 -9 5 0 12 -11 14 -25 4 -17 1 -25 -8 -25 -13 0 -19 -20 -15 -44 1
-5 -5 -3 -14 4 -9 7 -15 9 -14 4 4 -23 -2 -36 -15 -31 -10 4 -13 1 -9 -9 3 -7
-1 -14 -8 -14 -7 0 -10 -3 -7 -6 7 -7 -39 -54 -53 -54 -6 0 -7 -4 -4 -10 3 -5
1 -10 -5 -10 -7 0 -9 -7 -6 -16 6 -15 4 -15 -11 -3 -10 9 -14 9 -10 2 5 -7 -1
-21 -12 -32 -11 -11 -16 -23 -13 -27 4 -4 -1 -4 -10 -1 -12 4 -15 2 -11 -9 4
-12 -7 -19 -29 -15 -4 0 -5 -6 -2 -14 4 -8 1 -15 -6 -15 -6 0 -9 -4 -6 -9 3
-5 -4 -11 -15 -14 -15 -4 -20 -11 -15 -22 4 -12 0 -19 -15 -22 -13 -4 -18 -11
-14 -21 5 -13 3 -13 -12 -1 -12 10 -15 10 -9 1 9 -15 -12 -45 -25 -36 -5 3 -6
-1 -3 -9 3 -8 -2 -17 -11 -21 -9 -3 -13 -10 -10 -16 3 -5 -1 -10 -9 -10 -14 0
-21 -18 -17 -42 0 -5 -2 -7 -7 -7 -22 4 -34 -3 -28 -16 3 -9 0 -15 -10 -15 -8
0 -12 -4 -9 -10 6 -9 -8 -15 -29 -11 -5 1 -5 -4 1 -11 8 -9 7 -16 -2 -25 -7
-6 -15 -10 -18 -7 -3 3 -4 -3 -4 -13 1 -11 -4 -17 -12 -15 -9 2 -12 -4 -8 -19
4 -17 2 -20 -12 -16 -14 3 -17 0 -14 -14 3 -11 -1 -21 -11 -25 -9 -3 -13 -10
-10 -15 3 -5 -2 -9 -10 -9 -10 0 -13 -6 -10 -15 4 -11 2 -13 -9 -9 -12 4 -14
1 -10 -15 3 -13 1 -21 -6 -21 -7 0 -17 -13 -22 -30 -6 -17 -16 -27 -22 -23 -7
4 -8 0 -3 -13 4 -10 4 -15 0 -12 -9 9 -57 -49 -50 -60 7 -11 -28 -45 -37 -36
-4 4 -4 -3 -2 -16 3 -16 0 -20 -11 -16 -8 3 -12 2 -9 -3 3 -6 -3 -15 -12 -21
-16 -11 -16 -11 2 -6 18 5 18 5 4 -7 -9 -6 -19 -22 -23 -35 -4 -12 -12 -20
-17 -17 -8 6 -13 -9 -10 -29 1 -5 -5 -6 -14 -3 -8 4 -15 2 -15 -3 0 -6 5 -10
11 -10 5 0 7 -5 4 -10 -4 -6 -11 -8 -16 -5 -5 4 -9 -1 -9 -11 0 -9 -8 -23 -17
-31 -10 -8 -12 -11 -4 -7 10 5 12 3 7 -5 -5 -7 -14 -10 -22 -7 -12 5 -12 2 -3
-15 8 -15 8 -19 0 -15 -6 4 -11 2 -11 -4 0 -6 -4 -8 -10 -5 -5 3 -7 0 -4 -8 3
-8 -1 -17 -10 -20 -8 -3 -13 -16 -12 -31 2 -14 0 -25 -3 -24 -21 2 -29 -5 -26
-22 2 -11 0 -18 -6 -15 -5 4 -9 -1 -9 -9 0 -8 -10 -25 -22 -37 -13 -12 -16
-19 -8 -15 12 6 12 5 -1 -6 -9 -7 -14 -19 -11 -27 3 -9 0 -11 -8 -6 -10 6 -12
2 -8 -13 4 -12 2 -20 -3 -16 -5 3 -9 0 -9 -6 0 -6 -4 -9 -9 -6 -5 4 -7 -4 -3
-16 3 -13 1 -19 -5 -15 -5 4 -16 -11 -23 -33 -7 -22 -17 -37 -22 -34 -5 3 -7
2 -6 -3 5 -17 -26 -82 -36 -76 -6 4 -5 -1 3 -10 12 -16 12 -17 -5 -10 -16 6
-17 4 -6 -9 10 -12 10 -17 -1 -27 -8 -6 -16 -8 -20 -5 -3 3 -4 -6 -3 -19 4
-35 -11 -57 -24 -37 -6 9 -10 10 -10 3 0 -6 4 -14 10 -18 5 -3 7 -12 4 -20 -4
-8 -11 -12 -18 -8 -6 4 -6 0 2 -9 10 -13 10 -17 0 -20 -7 -3 -14 -14 -14 -26
-3 -40 -4 -43 -16 -36 -8 5 -8 1 2 -12 8 -10 10 -16 6 -12 -5 4 -15 -4 -23
-19 -11 -21 -11 -28 -1 -35 9 -5 8 -8 -6 -8 -11 0 -16 -3 -13 -7 4 -3 1 -13
-6 -21 -10 -13 -9 -14 3 -7 13 8 13 6 2 -8 -8 -9 -10 -22 -6 -28 5 -9 2 -10
-11 -5 -15 5 -16 4 -6 -8 7 -8 8 -17 3 -20 -5 -3 -8 -19 -7 -35 1 -19 -4 -32
-13 -36 -8 -3 -12 -8 -9 -12 4 -3 1 -13 -6 -21 -9 -13 -9 -14 1 -8 6 4 12 3
12 -3 0 -5 -4 -12 -9 -15 -4 -3 -7 -17 -5 -31 1 -15 -3 -28 -10 -31 -7 -3 -11
-19 -10 -37 1 -17 -2 -40 -8 -50 -8 -15 -7 -18 4 -12 10 6 10 5 1 -5 -9 -10
-9 -18 -1 -34 10 -19 10 -20 -6 -7 -15 13 -16 12 -7 -12 9 -22 8 -25 -6 -20
-12 5 -14 3 -7 -8 12 -19 14 -39 4 -39 -10 0 -8 -20 4 -39 7 -11 5 -13 -10 -7
-15 6 -16 4 -7 -5 9 -9 8 -15 -3 -27 -10 -10 -12 -18 -5 -25 6 -6 6 -18 0 -36
-7 -18 -7 -27 1 -29 8 -3 8 -8 -1 -18 -8 -10 -9 -18 0 -27 6 -8 8 -17 4 -21
-4 -3 -7 -32 -8 -64 0 -31 -4 -62 -8 -69 -4 -6 -4 -14 0 -16 5 -3 8 -62 8
-131 0 -69 4 -126 9 -126 5 0 3 -7 -4 -15 -10 -12 -10 -15 1 -15 10 0 10 -3 1
-12 -7 -7 -12 -17 -12 -23 0 -5 5 -3 10 5 8 12 10 10 11 -10 1 -14 1 -31 0
-39 -2 -7 1 -11 6 -8 4 3 9 -10 9 -29 1 -20 -3 -31 -9 -27 -6 3 -7 1 -3 -5 4
-7 14 -12 22 -12 8 0 12 -5 9 -10 -4 -6 -12 -8 -18 -4 -7 3 -4 -1 5 -9 13 -10
15 -16 6 -25 -8 -8 -8 -12 -2 -12 6 0 11 -6 12 -12 2 -27 8 -46 19 -59 5 -8 9
-24 8 -36 -1 -12 1 -20 5 -18 3 2 11 -5 18 -15 7 -12 8 -21 2 -25 -6 -4 -4
-13 5 -22 9 -9 14 -21 11 -28 -2 -6 4 -18 14 -25 11 -8 17 -17 14 -21 -2 -4 0
-10 6 -14 6 -4 8 -11 5 -16 -4 -5 -1 -9 5 -9 6 0 8 -5 4 -12 -5 -8 -2 -9 10
-5 10 4 15 3 11 -3 -3 -6 0 -10 7 -11 7 0 4 -4 -7 -9 -18 -8 -19 -9 -1 -9 12
-1 16 -6 12 -17 -3 -8 -2 -12 4 -9 6 3 10 -1 10 -9 0 -9 7 -16 16 -16 8 0 12
-4 9 -10 -3 -6 -1 -10 4 -10 6 0 11 -6 11 -14 0 -8 5 -16 10 -18 6 -2 12 -13
12 -24 2 -16 7 -20 23 -17 16 4 17 3 5 -6 -10 -7 -11 -11 -2 -11 6 0 12 -4 12
-10 0 -5 10 -21 22 -35 16 -19 24 -22 30 -13 5 9 8 5 8 -11 0 -15 5 -21 14
-18 9 4 12 -2 10 -19 -2 -18 1 -22 9 -16 13 11 41 -11 30 -22 -4 -3 -1 -6 6
-6 7 0 9 -4 6 -10 -3 -5 0 -10 8 -10 19 0 58 -35 50 -44 -4 -4 1 -4 10 0 12 4
17 2 15 -7 -2 -8 3 -13 10 -11 6 1 12 -7 12 -18 0 -17 4 -18 25 -10 19 7 23 6
18 -5 -3 -8 -10 -12 -16 -8 -6 3 -7 1 -3 -6 6 -9 11 -9 24 1 9 7 13 8 9 2 -3
-6 3 -18 14 -27 10 -9 19 -14 19 -10 0 4 7 -3 16 -16 13 -18 18 -20 25 -10 7
11 9 10 9 -3 0 -9 5 -20 12 -24 7 -5 9 -2 4 7 -4 8 1 4 12 -9 14 -15 22 -18
25 -10 4 8 6 7 6 -4 1 -11 8 -15 24 -12 12 2 16 2 9 -2 -18 -8 -4 -24 15 -17
11 4 14 3 9 -5 -4 -7 -1 -12 8 -12 9 0 16 -5 16 -11 0 -8 4 -8 14 0 11 9 14 8
12 -6 -1 -12 5 -17 17 -15 9 2 17 -3 17 -10 0 -9 3 -9 10 2 9 13 10 13 10 0 0
-9 10 -16 22 -17 12 -1 25 -9 30 -17 5 -8 16 -12 28 -9 14 4 20 0 20 -10 0
-10 7 -15 20 -12 14 3 20 -2 20 -13 0 -13 2 -14 9 -4 7 11 9 11 14 -2 4 -9 13
-13 21 -10 8 3 21 -5 31 -18 l17 -23 -6 25 c-6 25 -6 25 5 2 7 -12 16 -22 21
-22 5 0 6 6 3 13 -4 6 0 4 8 -5 11 -14 16 -15 27 -5 10 9 11 9 6 -1 -5 -8 0
-12 13 -12 11 0 23 -5 26 -10 4 -6 11 -8 16 -4 6 3 19 -2 29 -11 10 -9 24 -14
29 -10 6 3 11 1 11 -6 0 -7 3 -9 7 -6 3 4 15 -1 26 -10 11 -10 17 -13 14 -6
-4 6 -3 14 2 17 5 3 11 -2 13 -12 3 -10 12 -19 21 -19 9 0 13 5 10 10 -3 5 0
7 8 5 8 -3 13 -12 11 -19 -3 -11 -1 -11 9 -2 10 10 17 9 33 -5 11 -9 16 -11
12 -4 -4 7 -1 12 9 12 9 0 14 -4 11 -9 -9 -14 20 -21 34 -8 10 9 11 9 5 -2 -6
-11 -3 -13 13 -9 12 4 24 3 27 -2 8 -13 44 -19 41 -6 -2 6 -1 8 1 3 3 -4 9 -5
14 -2 5 4 6 -1 3 -9 -3 -9 -1 -16 5 -16 6 0 11 5 11 11 0 8 6 7 17 -2 14 -12
15 -12 9 0 -5 8 3 6 20 -5 15 -11 25 -14 21 -7 -8 13 18 12 30 -2 4 -4 2 -5
-6 0 -10 5 -12 4 -7 -3 5 -9 13 -9 26 -2 15 8 21 6 29 -7 6 -10 11 -13 11 -8
0 16 81 10 91 -6 7 -11 9 -11 9 -1 0 10 4 10 16 -2 19 -19 31 -21 16 -3 -8 10
-6 13 8 13 10 0 17 -3 14 -7 -2 -4 5 -9 16 -12 11 -3 20 0 20 5 0 6 5 7 13 2
6 -5 29 -9 50 -9 20 1 37 -3 37 -8 0 -5 7 -4 15 3 9 7 19 10 22 6 4 -4 2 -10
-5 -15 -7 -4 23 -7 65 -7 43 1 84 5 92 10 9 6 12 5 8 -1 -4 -7 21 -10 73 -10
53 0 77 4 73 11 -5 8 -2 8 8 0 17 -13 58 -13 78 0 9 6 12 5 8 -1 -8 -13 131
-12 152 1 10 6 12 5 7 -3 -6 -9 11 -11 67 -9 41 2 73 6 70 11 -2 4 -10 4 -16
1 -7 -4 -9 -3 -5 1 5 5 20 10 35 11 20 2 24 1 13 -6 -12 -7 -10 -9 7 -7 12 0
20 4 17 8 -5 9 22 20 30 12 9 -9 66 -12 66 -3 0 5 10 6 22 2 16 -4 19 -2 13 9
-5 8 1 6 13 -5 21 -18 21 -18 17 5 -4 22 -3 22 9 6 15 -19 31 -24 20 -5 -5 7
-3 8 7 2 20 -12 38 -14 44 -4 3 5 -4 7 -15 5 -11 -2 -18 0 -15 5 6 10 24 8 44
-4 10 -6 12 -5 7 2 -4 7 -2 12 3 12 6 0 11 -4 11 -8 0 -5 7 -9 15 -9 8 0 12 4
8 9 -3 6 9 7 27 5 24 -4 30 -2 26 8 -4 11 0 12 17 6 15 -6 26 -4 35 8 12 14
13 14 8 -3 -5 -15 -4 -17 7 -8 8 7 17 9 20 5 4 -3 7 -2 7 4 0 13 30 12 30 -1
0 -6 10 0 21 14 11 14 18 20 15 13 -4 -6 -2 -14 3 -17 5 -3 12 1 15 9 5 13 10
14 27 4 15 -8 19 -8 15 0 -5 7 4 11 23 11 16 0 33 5 36 11 4 6 13 8 21 5 8 -3
14 0 14 7 0 8 4 6 10 -3 7 -11 10 -11 10 -2 0 7 4 10 10 7 5 -3 20 1 33 10 13
8 27 12 30 8 4 -3 7 0 7 8 0 11 2 11 10 -1 8 -13 10 -12 10 3 0 10 5 15 10 12
6 -4 18 -1 27 7 10 7 14 8 10 1 -5 -8 -1 -8 17 0 13 7 22 15 20 19 -3 4 5 5
16 3 11 -2 20 0 20 4 0 5 8 8 18 7 9 0 16 4 15 10 -1 5 12 9 28 8 16 -1 27 2
24 6 -3 5 5 10 17 12 15 2 22 9 22 21 -1 13 1 15 10 8 9 -7 17 -7 26 2 10 10
12 9 6 -3 -5 -9 -2 -9 7 2 8 10 17 15 20 11 4 -3 7 -1 7 5 0 6 9 9 19 7 14 -3
18 1 14 11 -4 11 0 15 13 12 12 -2 18 2 16 11 -3 12 -1 12 14 0 10 -8 15 -9
11 -3 -6 11 19 29 36 26 4 -1 6 4 5 10 -2 7 3 12 11 10 8 -2 11 3 8 12 -4 10
-1 13 9 9 7 -3 14 0 14 6 0 6 6 11 13 11 16 1 57 35 57 49 0 6 3 10 8 10 19
-3 33 2 27 11 -3 6 -1 10 5 10 6 0 8 4 5 10 -4 6 1 7 12 3 15 -6 16 -4 6 8
-10 13 -8 15 18 13 26 -2 28 0 17 14 -10 12 -10 14 0 8 7 -4 12 -2 12 4 0 6 5
8 10 5 6 -3 10 1 10 10 0 9 5 13 10 10 6 -3 10 0 10 8 0 10 8 14 23 11 12 -2
17 -2 10 2 -17 8 -5 34 13 27 8 -3 14 1 14 11 0 9 6 16 14 16 8 0 21 9 29 20
8 11 17 17 22 12 4 -4 5 1 2 11 -4 10 -3 16 2 12 6 -3 14 3 20 12 6 10 11 14
11 9 0 -5 23 15 50 44 28 29 50 50 50 46 0 -4 6 -1 14 6 8 7 12 16 9 21 -2 4
3 7 11 7 18 0 48 39 39 53 -3 5 5 4 17 -3 17 -9 21 -9 15 0 -6 10 34 60 42 53
7 -6 32 10 27 18 -3 5 0 9 5 9 6 0 11 7 11 15 0 8 3 14 8 14 22 -4 31 3 25 18
-4 11 -3 14 5 9 7 -4 15 0 18 9 6 13 8 14 15 3 7 -10 9 -9 9 5 0 10 9 28 21
40 19 21 20 21 14 2 l-7 -20 13 20 c8 11 14 23 15 28 1 4 2 10 3 13 0 4 8 1
16 -6 12 -10 13 -8 10 10 -2 13 -2 20 2 17 3 -4 14 5 25 18 11 14 28 25 38 25
10 0 22 4 25 10 4 6 -1 7 -11 3 -12 -4 -15 -3 -10 5 4 7 14 12 22 12 9 0 12 5
8 12 -5 8 -2 9 12 4 10 -4 15 -4 11 0 -3 4 3 15 14 25 13 11 18 23 13 31 -5 9
-1 8 11 -2 17 -14 18 -13 12 2 -3 10 -1 20 5 24 7 4 8 3 4 -4 -4 -7 -3 -12 2
-12 5 0 14 12 21 26 7 16 17 24 26 21 9 -4 12 0 10 12 -2 12 2 18 13 17 10 0
16 5 14 13 -2 8 3 11 12 8 9 -4 15 -1 13 6 -1 7 6 11 16 11 15 -2 16 1 5 15
-7 9 -9 13 -4 9 10 -8 36 15 36 31 0 6 5 11 11 11 5 0 7 -5 3 -12 -4 -7 -3 -8
5 -4 6 4 9 12 6 17 -4 5 -1 9 5 9 7 0 10 7 6 15 -3 10 1 15 12 15 14 0 14 2 3
9 -11 7 -10 10 6 15 16 5 20 16 20 53 1 41 -1 45 -12 30 -7 -10 -16 -14 -19
-8 -3 5 -1 11 5 13 5 2 7 11 3 21 -3 10 -12 16 -19 13 -7 -2 -21 1 -31 8 -30
20 -56 28 -48 14 5 -8 2 -9 -11 -4 -16 6 -16 4 -4 -10 13 -16 12 -16 -8 -5
-14 7 -23 8 -23 2 0 -6 -8 -7 -17 -4 -13 5 -15 3 -9 -12 4 -11 4 -16 0 -12 -4
4 -14 1 -22 -6 -9 -6 -13 -7 -9 -1 3 6 0 11 -7 11 -8 0 -12 -7 -8 -15 3 -10 0
-13 -9 -10 -8 3 -22 -4 -31 -15 -12 -13 -18 -15 -18 -7 0 9 -8 6 -20 -8 -23
-24 -38 -30 -24 -9 5 7 2 5 -8 -5 -19 -21 -33 -24 -22 -5 4 6 -5 0 -21 -15
-29 -29 -51 -37 -40 -15 4 6 1 5 -7 -3 -7 -8 -19 -15 -25 -16 -30 -2 -34 -5
-27 -16 5 -9 3 -9 -9 1 -14 11 -18 11 -23 -3 -4 -10 -12 -15 -19 -12 -8 3 -15
-1 -18 -7 -3 -7 -20 -14 -38 -15 -19 -1 -35 -7 -37 -12 -2 -5 -10 -6 -19 -3
-11 4 -14 3 -9 -6 6 -8 0 -10 -20 -7 -15 3 -33 1 -40 -5 -7 -6 -17 -8 -23 -5
-5 3 -12 -1 -15 -9 -4 -13 -10 -14 -26 -5 -16 9 -22 8 -26 -5 -3 -8 -10 -15
-16 -15 -5 0 -7 4 -4 8 3 5 -2 9 -10 9 -8 0 -13 -6 -10 -12 3 -8 -9 -11 -35
-11 -21 1 -39 -2 -39 -6 0 -4 -7 -5 -15 -2 -9 4 -15 0 -15 -7 0 -11 -3 -11
-10 1 -7 12 -10 12 -10 1 0 -7 -6 -11 -15 -7 -8 3 -15 1 -15 -4 0 -5 -6 -7
-14 -4 -8 3 -17 0 -21 -5 -3 -6 -12 -8 -18 -4 -23 14 -49 9 -56 -10 -7 -18 -8
-18 -14 -3 -5 14 -11 15 -27 6 -11 -6 -25 -8 -30 -5 -5 3 -12 1 -15 -5 -5 -8
-11 -8 -20 0 -10 8 -15 8 -21 -1 -5 -8 -3 -9 6 -4 9 5 11 4 6 -4 -6 -9 -11 -9
-22 0 -11 9 -14 8 -14 -7 0 -16 -2 -17 -10 -4 -8 12 -13 13 -30 2 -25 -15 -33
-15 -23 1 4 7 -3 6 -17 -4 -17 -11 -34 -13 -52 -8 -18 5 -34 2 -49 -9 -21 -14
-22 -14 -16 1 9 23 -1 21 -25 -5 -11 -13 -17 -18 -14 -11 8 15 -10 27 -19 13
-3 -5 -11 -10 -16 -10 -6 0 -7 6 -3 13 6 9 5 9 -8 0 -8 -7 -18 -10 -21 -6 -4
3 -7 1 -7 -7 0 -10 -3 -10 -15 0 -10 8 -15 9 -15 1 0 -7 -8 -8 -26 -1 -23 9
-25 8 -20 -6 5 -13 3 -14 -7 -6 -13 11 -77 14 -77 3 0 -4 -9 -7 -20 -8 -11 -1
-18 2 -16 6 3 4 -1 8 -9 8 -8 0 -12 -4 -10 -7 3 -4 -6 -7 -20 -7 -14 0 -23 3
-20 7 2 3 -3 7 -11 7 -9 0 -13 -6 -9 -15 4 -12 3 -13 -10 -2 -12 10 -15 10
-15 0 0 -10 -3 -10 -15 0 -12 10 -15 10 -15 -1 0 -11 -2 -11 -10 1 -7 11 -10
11 -10 2 0 -9 -5 -10 -18 -3 -10 5 -23 6 -29 3 -7 -4 -46 -7 -87 -6 -54 1 -74
-2 -69 -10 4 -6 0 -5 -9 2 -10 8 -18 9 -22 3 -9 -14 -37 -2 -29 13 3 6 -2 3
-13 -6 -16 -14 -23 -15 -33 -5 -9 9 -14 9 -21 -3 -9 -13 -10 -13 -10 0 0 13
-1 13 -10 0 -8 -12 -10 -12 -10 -1 0 10 -3 11 -14 2 -10 -8 -16 -9 -21 -1 -9
14 -27 2 -18 -13 3 -7 -3 -4 -14 6 -16 14 -22 15 -26 5 -4 -10 -6 -10 -6 0 -1
6 -6 12 -12 12 -5 0 -7 -6 -3 -12 6 -10 4 -10 -7 0 -17 16 -32 16 -23 0 6 -10
4 -10 -8 0 -12 9 -18 10 -23 2 -5 -8 -10 -8 -20 0 -10 8 -15 8 -20 0 -5 -8
-11 -8 -21 1 -8 6 -14 8 -14 4 0 -4 -6 -2 -14 4 -8 7 -16 8 -19 4 -6 -10 -78
-10 -95 1 -7 4 -12 3 -12 -2 0 -8 -63 -7 -87 2 -7 3 -13 0 -13 -6 0 -7 -7 -3
-15 8 -15 19 -15 19 -9 -1 6 -20 5 -20 -10 -1 -14 18 -20 15 -17 -6 0 -4 -6
-5 -14 -2 -8 4 -12 11 -8 18 3 6 -4 2 -16 -8 -16 -15 -20 -16 -16 -5 4 10 0
16 -9 16 -8 0 -13 -4 -10 -9 3 -4 0 -8 -5 -8 -6 0 -11 5 -11 11 0 8 -4 8 -12
2 -17 -13 -49 -13 -41 0 4 6 -5 8 -21 5 -14 -3 -26 -2 -26 2 0 4 -11 5 -24 3
-13 -3 -27 0 -31 7 -5 8 -10 8 -21 -1 -11 -9 -15 -8 -20 5 -3 9 -11 13 -16 10
-6 -4 -5 -10 3 -15 10 -6 7 -8 -8 -6 -12 0 -19 5 -17 9 3 4 1 8 -5 8 -5 0 -13
-4 -16 -10 -4 -6 -13 -5 -25 2 -10 7 -16 16 -13 22 4 5 1 6 -8 1 -17 -11 -49
-14 -49 -5 0 4 -16 6 -35 5 -25 0 -35 4 -35 15 0 9 -3 11 -8 5 -11 -15 -32
-17 -32 -3 0 9 -3 9 -11 1 -12 -12 -42 -6 -34 7 3 5 -5 6 -17 3 -19 -4 -20 -3
-8 6 8 6 10 11 4 11 -5 0 -15 -5 -22 -12 -8 -8 -12 -9 -12 -1 0 6 -8 10 -17 9
-10 -2 -21 2 -25 8 -5 8 -8 7 -8 -2 0 -7 -5 -10 -10 -7 -6 4 -7 12 -3 18 4 7
-2 5 -12 -3 -11 -9 -16 -10 -11 -2 4 6 2 12 -3 12 -6 0 -11 -6 -11 -12 0 -9
-3 -10 -8 -2 -11 17 -60 26 -65 11 -4 -9 -6 -9 -6 1 -1 8 -6 10 -13 6 -9 -6
-9 -3 0 9 12 14 11 16 -7 12 -11 -2 -23 1 -27 6 -4 6 -10 6 -19 -1 -9 -8 -17
-7 -27 3 -7 8 -21 13 -31 11 -9 -1 -17 2 -17 7 0 5 -9 9 -21 9 -11 0 -18 4
-15 9 4 5 -5 8 -19 6 -14 -1 -25 2 -25 6 0 5 -3 8 -7 7 -20 -4 -64 16 -60 27
4 8 -3 10 -19 7 -14 -2 -24 0 -24 7 0 7 -4 10 -9 7 -13 -9 -42 4 -35 15 3 5 2
8 -3 7 -4 -1 -18 3 -30 10 -13 7 -23 9 -23 5 0 -4 -6 -1 -13 8 -14 18 -52 35
-41 18 3 -6 -3 -5 -15 3 -12 7 -21 18 -21 25 0 7 -11 13 -25 13 -14 0 -25 5
-25 10 0 6 -5 10 -11 10 -16 0 -39 26 -31 36 4 5 -2 2 -12 -6 -13 -10 -17 -10
-12 -2 4 7 2 12 -4 12 -7 0 -10 7 -7 14 4 10 1 13 -8 10 -17 -7 -47 20 -37 31
4 5 1 5 -6 1 -7 -4 -15 -1 -18 8 -3 9 -13 16 -21 16 -8 0 -11 5 -8 10 3 6 1
10 -4 10 -16 0 -51 33 -51 47 0 7 -7 13 -15 13 -9 0 -18 7 -21 15 -4 8 -11 12
-18 8 -6 -4 -5 1 3 10 11 14 11 17 0 18 -8 1 -18 1 -23 0 -5 -1 -3 6 5 15 9
12 9 15 2 10 -8 -4 -13 -1 -13 8 0 9 -4 16 -10 16 -5 0 -10 7 -10 16 0 8 -4
12 -10 9 -9 -5 -15 16 -11 38 1 5 -3 6 -9 2 -9 -6 -14 7 -11 28 0 4 -7 7 -17
8 -14 0 -14 2 3 9 18 8 18 9 -5 9 -20 1 -22 3 -10 11 12 8 12 10 1 10 -8 0
-11 7 -8 19 3 14 1 18 -10 14 -9 -4 -14 0 -13 8 4 28 0 50 -9 45 -5 -3 -9 6
-10 19 -3 48 -4 55 -13 55 -5 0 -7 4 -3 9 3 5 1 12 -4 16 -6 3 -8 12 -5 19 3
8 0 17 -6 21 -9 6 -9 10 1 16 10 6 11 11 3 17 -16 10 -26 56 -10 45 6 -4 4 -1
-6 9 -13 12 -15 17 -6 21 10 3 10 7 0 19 -9 12 -10 18 -2 23 8 5 7 11 -2 23
-11 13 -11 14 2 7 12 -7 13 -6 3 6 -7 9 -9 20 -3 29 6 9 5 17 -2 21 -9 6 -8
12 1 23 10 11 10 16 2 16 -8 0 -9 5 -2 18 7 13 6 23 -1 30 -9 9 -9 12 1 12 10
0 11 3 2 13 -8 10 -7 17 1 25 9 9 9 12 -2 12 -9 0 -8 5 6 16 10 8 13 13 7 9
-18 -9 -16 5 4 27 12 13 13 18 4 16 -7 -2 -15 5 -16 15 -2 9 0 15 5 12 4 -3
11 2 14 11 3 8 2 12 -4 9 -6 -3 -10 -2 -10 4 0 5 5 13 11 17 8 4 7 9 -2 15
-10 6 -10 9 -2 9 7 0 10 7 6 17 -5 12 -3 14 7 8 8 -5 11 -4 6 3 -3 6 -2 13 3
17 7 4 7 15 1 31 -7 17 -7 23 0 19 7 -4 9 3 6 20 -3 17 0 28 10 32 7 3 11 9 8
14 -3 5 -10 6 -16 3 -7 -4 -8 -2 -4 5 4 6 11 9 14 7 4 -2 12 7 19 20 6 13 7
22 3 19 -5 -3 -8 3 -7 14 0 11 4 18 7 16 3 -2 10 8 17 21 8 18 8 24 0 24 -7 0
-5 5 3 10 8 5 11 10 6 10 -4 0 -1 11 8 25 9 14 14 25 11 25 -4 0 1 7 10 16 9
9 14 23 11 30 -3 8 -1 14 4 14 5 0 6 8 3 18 -6 15 -5 15 10 3 15 -12 17 -12
11 3 -3 9 -3 24 0 33 6 14 9 15 16 4 5 -9 8 -3 7 20 -1 22 2 33 10 32 7 -2 10
4 7 12 -4 8 -1 15 6 15 7 0 10 6 7 14 -3 8 1 17 9 20 8 3 14 13 14 21 0 10 5
13 13 9 7 -5 6 0 -3 11 -9 11 -10 16 -2 11 7 -4 12 -2 12 4 0 6 4 9 9 5 6 -3
8 4 6 15 -2 11 0 18 6 15 5 -4 10 -1 10 4 1 6 2 17 3 24 1 6 8 11 15 9 7 -1
10 2 7 7 -8 13 4 42 15 35 5 -3 9 2 9 10 0 8 8 21 18 28 9 7 17 20 17 28 0 8
8 14 18 14 15 -2 16 1 5 14 -10 12 -10 14 0 8 7 -4 12 -2 12 4 0 6 5 8 13 4 8
-5 7 -2 -2 9 -12 15 -12 17 3 11 11 -4 16 -1 16 10 0 9 5 16 10 16 6 0 10 7
10 15 0 8 5 15 11 15 6 0 8 7 5 16 -3 8 -2 12 4 9 6 -3 10 -1 10 5 0 6 4 9 9
5 5 -3 12 4 16 15 4 11 11 18 16 14 6 -3 9 2 7 12 -2 11 2 18 9 17 6 -2 15 6
18 17 4 12 12 17 21 13 8 -3 14 -2 13 3 -3 19 1 35 9 31 4 -3 12 1 19 8 10 11
10 15 0 18 -7 3 -4 6 6 6 10 1 16 4 14 9 -3 4 12 18 33 31 27 17 37 30 35 43
-4 17 -2 18 11 7 12 -10 15 -10 12 2 -2 8 4 13 14 13 11 -1 15 5 12 19 -2 11
-1 17 3 14 3 -3 12 1 20 9 8 8 18 12 23 9 4 -3 6 5 4 17 -2 13 -1 17 2 10 4
-9 13 -5 30 13 13 15 21 31 18 37 -5 7 -2 8 6 3 8 -5 20 1 32 16 11 13 16 18
12 10 -5 -9 -3 -12 4 -7 7 4 12 15 12 24 0 13 2 14 9 4 6 -10 11 -9 22 4 12
15 12 17 0 9 -10 -5 -12 -4 -7 3 4 7 16 12 26 12 13 0 17 5 14 15 -5 11 -2 13
10 9 9 -3 16 -1 16 5 0 6 7 11 15 11 8 0 15 7 15 15 0 8 6 15 14 15 8 0 17 7
20 16 3 8 10 13 14 10 5 -3 18 2 28 10 10 9 13 13 7 9 -7 -3 -13 -3 -13 0 0 3
16 13 35 21 24 9 33 19 28 27 -4 7 0 7 10 -2 15 -12 17 -12 11 4 -6 15 -3 17
14 13 16 -4 19 -2 15 10 -5 12 -2 14 11 9 14 -6 17 -3 12 8 -3 9 -2 13 4 10 6
-3 10 -1 10 6 0 8 5 8 18 -2 9 -7 14 -10 10 -5 -4 5 -3 17 3 28 8 16 13 17 25
7 8 -7 14 -8 12 -3 -2 5 8 21 21 34 13 14 20 18 16 10 -7 -12 -6 -13 7 -3 8 7
18 10 22 6 4 -4 4 -1 1 8 -4 10 5 19 29 29 19 7 32 18 29 23 -4 6 2 8 14 5 16
-4 19 -1 17 18 -1 16 2 21 13 17 12 -5 12 -7 1 -14 -11 -7 -11 -9 0 -9 8 0 16
9 19 20 3 11 9 17 15 14 5 -3 18 6 30 21 11 14 27 24 34 21 8 -3 20 3 26 14 7
11 19 20 26 20 7 0 15 7 18 15 5 12 9 13 20 4 12 -9 13 -9 9 4 -4 8 -1 18 6
23 8 4 10 3 5 -4 -5 -8 -1 -10 9 -6 9 4 14 12 12 18 -3 7 5 13 16 13 11 1 25
9 29 18 5 8 16 15 23 15 8 0 15 5 15 11 0 5 5 7 10 4 6 -3 10 -1 10 5 0 6 5 8
12 4 8 -5 9 -2 4 11 -6 16 -4 16 11 4 11 -9 14 -10 9 -1 -4 7 -1 12 9 12 9 0
13 5 9 11 -4 7 -1 10 7 7 8 -3 19 4 26 16 7 12 12 15 13 8 0 -10 4 -9 16 2 8
9 20 13 26 10 7 -4 8 -2 4 4 -4 7 -1 12 9 12 9 0 13 5 10 10 -5 9 15 15 37 11
4 0 5 6 2 14 -4 10 0 13 15 10 12 -2 19 0 16 6 -4 5 -1 9 5 9 6 0 8 5 4 13 -5
7 -2 7 10 -2 9 -8 16 -10 14 -5 -2 5 1 9 5 9 5 0 13 8 18 17 5 9 25 22 45 28
26 9 32 15 24 25 -8 9 -5 12 14 10 15 -2 27 3 30 12 4 8 13 13 21 10 9 -4 12
-1 9 8 -4 10 0 13 15 10 15 -3 18 0 14 12 -5 12 -2 15 9 10 10 -3 19 1 23 11
5 14 7 14 15 2 8 -13 10 -12 10 3 0 9 7 17 16 17 9 0 12 5 8 12 -5 8 -2 9 10
5 10 -4 19 -1 22 8 4 8 12 15 20 15 8 0 14 5 14 10 0 11 49 35 63 31 5 -1 6 3
2 9 -5 9 7 14 27 11 4 0 5 5 2 13 -3 7 3 19 13 27 17 13 17 13 3 -6 -14 -19
-14 -19 3 -6 9 7 17 20 17 28 0 7 7 16 15 19 13 5 13 9 3 22 -10 12 -10 14 0
8 6 -4 12 -2 12 3 0 6 3 10 8 10 19 -3 25 2 12 11 -11 7 -11 10 -2 10 7 0 10
5 7 10 -3 6 2 10 12 10 15 0 16 2 3 10 -11 7 -11 10 -2 10 7 0 10 5 7 10 -3 6
2 10 12 10 15 0 16 2 3 10 -10 6 -11 10 -2 10 6 0 12 3 11 8 -2 15 13 52 20
47 4 -2 7 12 6 31 -2 25 4 39 19 49 11 8 15 15 7 15 -7 0 -11 6 -8 13 2 6 9
11 15 10 5 -1 8 7 4 19 -3 15 -2 19 7 14 14 -9 11 16 -4 26 -6 4 -2 8 9 8 15
0 16 3 7 14 -9 11 -9 16 0 22 8 5 9 3 4 -6 -5 -8 -4 -11 2 -7 6 4 13 16 16 27
4 18 3 19 -9 9 -12 -10 -13 -9 -8 5 3 9 10 16 15 16 4 0 6 7 3 15 -4 9 0 15 7
15 11 0 11 3 -1 10 -13 8 -13 10 2 10 15 0 16 4 8 26 -7 18 -7 23 1 18 7 -4 9
2 7 17 -2 14 2 23 9 22 7 -2 10 8 8 27 -2 17 0 30 5 30 10 0 8 19 -4 39 -6 10
-5 12 2 7 16 -10 15 7 0 23 -10 11 -10 13 0 7 8 -5 12 0 13 13 2 30 3 34 13
50 5 8 4 16 -5 22 -8 5 -9 9 -4 9 6 0 10 32 11 75 0 41 -4 75 -9 75 -5 0 -5 6
1 13 8 9 4 12 -14 13 -13 1 -24 -2 -24 -8 0 -5 -4 -6 -10 -3 -5 3 -10 1 -10
-6 0 -8 -4 -8 -16 1 -12 11 -15 11 -12 -1 2 -8 8 -18 13 -22 6 -5 2 -6 -9 -3
-11 4 -26 0 -37 -10 -10 -9 -23 -13 -30 -8 -8 4 -10 3 -5 -4 4 -7 2 -12 -4
-12 -6 0 -9 -4 -6 -9 3 -4 -6 -7 -19 -5 -14 1 -23 -2 -19 -7 3 -5 11 -6 17 -2
7 4 6 0 -2 -10 -15 -18 -26 -23 -16 -7 3 6 1 10 -4 10 -6 0 -11 -5 -11 -11 0
-6 -6 -9 -14 -6 -15 6 -48 -27 -38 -39 4 -3 1 -5 -7 -2 -8 2 -25 -6 -39 -19
-25 -23 -48 -31 -37 -13 10 16 -1 11 -16 -7 -12 -14 -12 -16 0 -8 10 5 12 4 7
-3 -4 -7 -14 -12 -22 -12 -8 0 -14 -5 -14 -11 0 -5 -4 -7 -10 -4 -5 3 -10 -2
-11 -12 0 -10 -3 -13 -6 -5 -2 6 -10 12 -15 12 -6 0 -8 -3 -5 -7 10 -9 -31
-36 -43 -28 -6 4 -7 -1 -3 -12 3 -10 3 -15 -2 -11 -4 4 -14 0 -22 -10 -10 -11
-12 -12 -8 -2 4 8 -3 5 -14 -8 -11 -13 -25 -21 -30 -18 -5 4 -12 2 -16 -4 -3
-5 0 -11 7 -11 7 -1 0 -4 -17 -8 -16 -4 -29 -12 -27 -19 1 -7 -1 -11 -5 -11
-22 4 -43 -2 -43 -12 0 -5 6 -7 13 -3 7 4 9 3 4 -2 -5 -5 -18 -9 -30 -9 -12
-1 -21 -6 -20 -13 2 -7 -4 -9 -14 -5 -12 5 -14 3 -8 -7 6 -10 4 -12 -8 -7 -11
4 -17 1 -17 -8 0 -7 -5 -17 -12 -21 -7 -4 -8 -3 -4 4 5 8 2 10 -8 6 -9 -3 -15
-9 -14 -12 2 -20 -3 -25 -12 -12 -7 11 -10 11 -10 2 0 -7 -5 -10 -10 -7 -6 4
-9 1 -8 -7 2 -7 -4 -12 -14 -10 -10 1 -23 -6 -29 -17 -7 -10 -19 -17 -26 -14
-9 4 -11 0 -6 -13 4 -11 3 -15 -4 -11 -16 10 -45 -3 -39 -18 3 -8 -4 -10 -19
-7 -12 2 -26 -2 -30 -9 -6 -8 -4 -10 5 -4 9 5 11 4 6 -3 -4 -7 -14 -12 -22
-12 -8 0 -14 -4 -14 -8 0 -8 -6 -10 -49 -14 -10 -1 -17 -7 -14 -14 6 -15 -79
-7 -89 9 -4 7 -8 8 -8 4 0 -4 -9 -3 -19 3 -14 7 -21 6 -24 -3 -3 -6 -6 -3 -6
8 -1 17 -3 17 -11 5 -8 -13 -10 -12 -10 3 0 14 -5 17 -19 12 -13 -4 -24 1 -34
15 -11 16 -16 18 -20 8 -3 -8 -6 -6 -6 6 -1 11 -4 17 -7 13 -4 -3 -12 -1 -19
6 -7 7 -27 23 -45 37 -18 14 -38 30 -45 37 -7 7 -15 9 -19 6 -3 -4 -6 2 -6 13
0 15 -2 16 -9 5 -7 -11 -10 -10 -15 6 -4 11 -17 29 -29 39 l-22 19 20 -25 20
-25 -22 19 c-12 10 -25 27 -28 37 -4 11 -11 19 -16 19 -6 0 -7 -6 -3 -12 4 -8
3 -10 -2 -5 -5 5 -9 14 -9 20 0 5 -6 12 -14 15 -8 3 -11 0 -7 -7 5 -7 1 -8
-10 -4 -11 4 -13 8 -6 11 7 2 12 10 12 18 0 8 -6 11 -15 8 -11 -5 -13 -2 -9
10 4 11 2 16 -7 14 -7 -2 -13 2 -14 9 0 6 -4 15 -9 20 -5 5 -6 3 -2 -4 4 -7 3
-13 -2 -13 -6 0 -13 12 -16 26 -4 15 -10 24 -13 21 -6 -6 -33 17 -33 28 0 3
-12 18 -27 32 -16 14 -19 19 -8 12 19 -14 19 -14 0 13 -14 18 -24 23 -32 16
-8 -6 -11 -4 -9 9 2 9 -5 24 -14 33 -12 11 -12 13 0 5 13 -9 13 -8 2 7 -8 10
-10 23 -6 30 6 11 5 11 -8 0 -13 -10 -17 -10 -22 4 -3 9 -4 20 0 25 5 8 -9 13
-29 10 -4 -1 -3 7 3 18 13 25 13 34 -1 25 -7 -4 -10 -1 -7 7 3 8 -2 20 -11 27
-12 10 -13 12 -1 6 13 -7 13 -5 1 9 -13 17 -7 22 20 19 4 -1 5 7 2 18 -4 15 0
18 21 16 14 -2 25 0 24 3 0 3 0 13 1 21 1 13 2 13 11 0 6 -9 10 -10 10 -3 0 7
9 10 20 8 12 -2 23 2 26 10 5 11 11 12 26 4 15 -8 19 -8 13 1 -5 7 -1 11 11
10 34 -4 45 0 38 12 -4 7 -3 8 4 4 7 -4 12 -2 12 5 0 7 7 4 15 -7 8 -10 15
-14 15 -9 0 6 11 11 25 11 14 1 22 -2 19 -8 -4 -6 0 -6 13 0 12 7 25 7 36 1
13 -8 16 -6 11 8 -5 16 -4 16 10 -1 9 -11 16 -15 16 -10 0 6 7 11 15 11 10 0
12 -4 5 -12 -7 -8 -4 -11 11 -10 11 1 25 8 30 16 7 11 9 10 10 -6 0 -13 3 -15
6 -6 5 11 7 11 15 0 7 -11 11 -11 15 -2 3 9 10 10 21 4 9 -5 28 -8 42 -7 14 1
28 -3 32 -9 5 -6 8 -5 8 3 0 7 5 10 10 7 6 -4 8 -9 6 -13 -4 -6 42 -13 101
-15 18 -1 20 -4 10 -16 -6 -9 -7 -13 -3 -9 5 4 16 2 24 -5 13 -9 14 -9 8 1
-10 17 26 11 51 -8 17 -14 17 -14 3 4 -8 11 -10 17 -3 12 17 -9 53 11 53 29 0
14 13 20 34 16 5 -1 6 5 3 14 -4 9 -1 15 8 15 8 0 15 7 15 15 0 9 7 18 15 21
8 4 12 10 9 15 -3 5 2 9 11 9 9 0 13 5 9 11 -3 6 5 21 20 34 14 12 22 26 18
30 -4 5 2 5 12 1 16 -5 17 -4 6 9 -11 14 -7 19 13 16 4 0 7 8 7 19 0 11 7 20
16 20 8 0 13 4 10 9 -9 13 4 42 16 35 5 -3 8 2 6 12 -2 12 2 18 10 16 8 -1 11
2 8 7 -7 11 22 71 35 71 6 0 7 5 4 10 -3 6 -1 10 6 10 8 0 8 4 -1 15 -11 13
-10 14 4 9 12 -5 15 -2 9 12 -4 11 -3 15 4 11 11 -7 28 20 24 36 -1 4 5 15 14
23 9 9 13 26 11 40 -3 14 -1 22 5 19 5 -4 9 -1 9 5 0 6 4 9 8 6 4 -2 9 4 9 15
1 13 -2 17 -10 12 -7 -4 -7 -1 1 10 8 9 10 22 6 29 -6 10 -5 11 8 1 20 -17 29
-6 18 23 -6 15 -5 26 2 30 7 5 8 3 3 -6 -5 -9 -4 -11 4 -6 9 6 9 11 1 21 -8
10 -7 16 7 24 13 8 14 10 3 11 -10 0 -11 3 -3 11 6 6 9 18 6 27 -4 10 -2 13 5
8 17 -10 15 0 -4 18 -13 14 -13 16 -1 16 21 0 28 26 12 40 -8 7 -12 16 -10 21
3 4 -4 6 -15 4 -11 -2 -19 -1 -16 3 2 4 -2 12 -9 19 -11 10 -15 10 -18 0 -4
-9 -6 -9 -6 1 -1 6 -8 12 -16 12 -8 0 -15 5 -15 11 0 6 -9 9 -20 6 -11 -3 -18
0 -17 6 1 6 -2 12 -8 12 -31 4 -64 18 -60 26 3 4 -4 6 -16 4 -13 -3 -29 1 -38
8 -12 10 -13 9 -7 -2 6 -9 5 -12 -5 -9 -8 3 -13 10 -12 15 1 5 -10 9 -25 8
-15 0 -30 3 -33 8 -4 5 -16 4 -27 -2 -15 -8 -23 -8 -28 1 -5 7 -3 8 6 3 8 -5
11 -4 7 3 -4 5 -16 8 -27 5 -11 -3 -17 -10 -13 -16 3 -6 1 -7 -6 -3 -6 4 -9
12 -6 17 4 5 3 9 -2 10 -4 0 -20 2 -36 4 -18 2 -25 0 -21 -7 4 -7 2 -8 -5 -4
-6 4 -23 9 -37 12 -19 3 -24 1 -18 -8 6 -10 5 -10 -7 -1 -8 6 -37 11 -65 10
-28 0 -56 3 -62 7 -7 4 -12 4 -12 -1 0 -4 -13 -8 -29 -8 -16 0 -27 3 -25 7 2
4 0 9 -6 13 -5 3 -10 1 -10 -4 0 -6 -8 -11 -17 -11 -14 0 -15 2 -5 9 16 10
-56 7 -81 -3 -10 -5 -24 -3 -34 5 -14 12 -16 12 -8 0z m75 -5 c0 -3 -4 -8 -10
-11 -5 -3 -10 -1 -10 4 0 6 5 11 10 11 6 0 10 -2 10 -4z m845 -196 c3 -6 -1
-7 -9 -4 -18 7 -21 14 -7 14 6 0 13 -4 16 -10z m-1745 -780 c0 -5 -5 -10 -11
-10 -5 0 -7 5 -4 10 3 6 8 10 11 10 2 0 4 -4 4 -10z m170 -2605 c-7 -8 -17
-15 -23 -15 -6 0 -2 7 9 15 25 19 30 19 14 0z m-666 -1146 c-3 -5 -10 -7 -15
-3 -5 3 -7 10 -3 15 3 5 10 7 15 3 5 -3 7 -10 3 -15z m-710 -797 c3 -5 -1 -9
-9 -9 -8 0 -12 4 -9 9 3 4 7 8 9 8 2 0 6 -4 9 -8z m5391 -541 c-3 -12 -10 -21
-15 -21 -4 0 -3 11 3 24 14 29 22 27 12 -3z m-3231 -1569 c3 -5 -1 -9 -9 -9
-8 0 -12 4 -9 9 3 4 7 8 9 8 2 0 6 -4 9 -8z m601 -2 c-3 -5 -12 -10 -18 -10
-7 0 -6 4 3 10 19 12 23 12 15 0z"/>
<path d="M8496 7689 c3 -5 10 -6 16 -3 7 4 8 2 4 -4 -5 -9 -13 -9 -29 0 -20
10 -21 10 -8 -5 17 -21 8 -22 -13 -1 -14 14 -16 14 -16 0 0 -12 -5 -14 -25 -6
-19 7 -23 6 -18 -5 5 -14 -11 -19 -69 -19 -14 1 -15 -2 -5 -15 10 -12 9 -13
-1 -7 -7 4 -20 2 -29 -6 -14 -11 -16 -11 -8 1 6 10 4 12 -4 7 -7 -5 -10 -15
-6 -24 5 -13 1 -12 -15 3 -20 18 -21 18 -14 0 5 -13 4 -16 -4 -11 -7 4 -12 3
-12 -2 0 -6 -7 -13 -16 -16 -15 -6 -15 -4 -3 11 7 10 -1 5 -19 -11 -18 -17
-32 -26 -32 -21 0 5 -7 0 -16 -11 -8 -10 -12 -13 -9 -6 6 11 3 12 -14 3 -11
-7 -21 -14 -21 -17 0 -3 5 -2 12 2 7 4 8 3 4 -4 -4 -7 -16 -12 -28 -12 -14 0
-18 -5 -14 -15 5 -13 2 -14 -15 -4 -14 7 -19 7 -15 0 9 -13 -31 -34 -47 -25
-8 5 -7 2 2 -9 11 -15 11 -17 -2 -17 -8 0 -22 -10 -31 -22 -12 -18 -14 -19 -9
-4 4 13 3 17 -5 12 -7 -4 -12 -14 -12 -23 0 -9 -3 -14 -6 -10 -4 3 -12 1 -19
-6 -7 -7 -23 -19 -35 -27 -12 -8 -29 -21 -38 -28 -14 -11 -13 -11 8 -2 24 11
24 10 5 -4 -11 -8 -25 -19 -30 -24 -6 -5 -23 -17 -38 -26 -15 -10 -24 -22 -21
-27 3 -5 -1 -6 -9 -3 -8 3 -20 -3 -28 -12 -12 -15 -12 -17 0 -9 9 5 12 4 7 -3
-4 -6 -14 -8 -24 -5 -9 3 -14 3 -10 -1 8 -9 -24 -45 -35 -39 -4 3 -6 -1 -5 -9
2 -7 -3 -12 -9 -11 -7 2 -12 -3 -10 -10 1 -6 -4 -11 -12 -9 -8 2 -11 -3 -8
-12 4 -11 1 -13 -10 -9 -11 4 -14 2 -9 -5 3 -6 -3 -16 -14 -22 -12 -6 -18 -16
-13 -23 4 -7 -2 -5 -12 3 -10 8 -16 10 -12 3 4 -6 4 -19 1 -28 -5 -12 -9 -13
-14 -5 -5 8 -11 0 -18 -19 -6 -17 -14 -31 -17 -31 -3 0 -3 6 1 13 5 8 2 7 -10
-2 -9 -8 -15 -20 -12 -28 3 -8 2 -11 -4 -8 -5 3 -14 -3 -19 -14 -6 -11 -20
-23 -32 -26 -17 -6 -18 -9 -7 -23 10 -12 10 -14 1 -8 -7 4 -13 2 -13 -3 0 -6
-6 -10 -12 -8 -7 1 -12 -4 -10 -12 2 -8 -3 -11 -12 -8 -10 4 -14 0 -11 -14 2
-11 0 -17 -4 -15 -7 5 -48 -34 -53 -52 -2 -4 -6 -6 -10 -5 -4 2 -5 -3 -2 -11
3 -8 0 -17 -7 -22 -8 -4 -10 -3 -5 4 4 8 2 10 -7 6 -8 -3 -17 -15 -20 -26 -4
-12 -10 -17 -17 -13 -9 6 -9 2 0 -15 7 -14 8 -20 1 -16 -11 7 -53 -29 -44 -37
2 -3 -5 -10 -16 -17 -12 -6 -21 -18 -21 -26 0 -9 -5 -12 -12 -8 -8 5 -9 2 -5
-10 4 -10 3 -15 -3 -11 -6 3 -10 1 -10 -5 0 -6 -5 -8 -11 -4 -8 4 -9 0 -4 -15
4 -15 3 -21 -7 -19 -7 2 -12 -3 -10 -9 1 -7 -4 -13 -12 -13 -8 0 -18 -5 -22
-12 -5 -7 -3 -8 6 -3 9 5 11 4 6 -3 -4 -7 -15 -12 -24 -13 -11 0 -12 -3 -4 -6
6 -2 12 -9 12 -14 0 -6 -4 -7 -10 -4 -5 3 -10 1 -10 -4 0 -6 -8 -11 -17 -12
-10 0 -13 -3 -6 -6 10 -3 10 -7 0 -18 -7 -7 -15 -11 -19 -9 -4 2 -10 -1 -14
-7 -5 -8 -3 -9 6 -4 8 5 11 3 8 -6 -3 -8 -10 -13 -16 -12 -7 2 -9 -4 -5 -14 5
-12 2 -15 -9 -11 -8 4 -15 0 -16 -8 -1 -8 -3 -21 -4 -29 -1 -8 -4 -13 -7 -11
-3 2 -12 -2 -19 -10 -7 -8 -10 -14 -6 -14 3 0 1 -6 -5 -13 -6 -8 -8 -16 -5
-20 3 -3 -3 -10 -14 -16 -11 -6 -22 -8 -24 -5 -3 2 -4 -7 -3 -21 2 -17 -2 -25
-12 -25 -10 0 -14 -6 -10 -19 3 -15 1 -18 -11 -14 -11 5 -14 2 -9 -10 4 -11
-1 -25 -13 -37 -11 -11 -20 -23 -20 -27 0 -5 -6 -16 -14 -25 -8 -9 -10 -18 -5
-20 5 -2 2 -12 -6 -23 -15 -17 -16 -18 -11 -2 3 10 2 15 -4 12 -5 -3 -8 -19
-6 -35 2 -17 -1 -30 -6 -30 -6 0 -7 -7 -4 -16 5 -14 4 -15 -8 -5 -11 10 -14 9
-12 -1 1 -7 5 -18 9 -24 4 -7 -1 -18 -11 -25 -16 -13 -16 -13 -2 6 14 18 14
19 -1 7 -9 -7 -15 -23 -13 -37 1 -14 -2 -25 -7 -25 -6 0 -7 -5 -3 -12 5 -7 2
-9 -9 -5 -11 4 -14 2 -10 -8 3 -8 10 -12 17 -9 6 3 2 -2 -8 -10 -13 -10 -15
-16 -7 -16 11 0 11 -3 1 -15 -7 -9 -10 -18 -7 -22 4 -3 -1 -12 -11 -20 -9 -8
-11 -12 -4 -8 13 7 17 -7 5 -19 -12 -12 -12 -157 0 -149 6 4 7 1 1 -8 -11 -18
-13 -59 -2 -59 4 0 8 -5 8 -11 0 -5 -4 -8 -8 -5 -7 4 -8 -16 -3 -44 1 -3 6 2
11 10 7 11 8 5 3 -19 -5 -28 -3 -33 8 -26 11 7 12 6 4 -6 -16 -22 -1 -94 17
-83 5 3 9 0 7 -7 -4 -32 2 -49 17 -49 10 0 14 -6 11 -14 -4 -9 0 -13 11 -12 9
2 25 -6 35 -17 9 -11 17 -17 17 -13 0 3 14 0 30 -9 17 -9 30 -12 30 -9 0 4 9
-3 20 -16 11 -13 20 -17 20 -10 0 9 7 7 21 -6 12 -10 30 -18 40 -16 11 2 27
-5 37 -15 9 -11 13 -12 7 -4 -8 12 -3 11 19 -3 16 -10 25 -12 20 -5 -4 7 6 3
23 -9 39 -28 53 -29 22 -1 l-24 21 30 -20 c38 -24 68 -35 60 -22 -3 6 -1 10 4
10 6 0 11 -8 11 -18 0 -15 6 -18 31 -14 24 4 30 2 24 -8 -5 -9 -4 -11 4 -6 6
4 18 2 26 -4 8 -7 22 -10 30 -6 9 3 18 -1 22 -10 5 -13 7 -13 14 -2 7 10 9 11
9 0 0 -7 5 -10 10 -7 6 3 10 1 10 -5 0 -6 6 -10 13 -9 24 3 38 -1 33 -10 -3
-5 8 -8 24 -7 17 1 30 -2 30 -7 0 -5 7 -7 15 -3 8 3 15 2 15 -2 0 -4 14 -13
30 -19 17 -6 28 -7 24 -2 -3 5 0 9 5 9 6 0 11 -4 11 -8 0 -5 12 -14 26 -20 20
-10 24 -10 18 0 -4 7 5 2 21 -12 16 -14 25 -19 21 -12 -8 14 10 17 19 2 3 -5
12 -7 19 -4 7 3 20 -2 29 -10 9 -9 19 -16 24 -16 5 0 9 -12 8 -27 0 -31 -33
-70 -53 -65 -8 2 -12 0 -9 -5 3 -4 -6 -9 -20 -9 -13 -1 -31 -10 -39 -20 -9
-11 -13 -12 -9 -4 4 8 -3 4 -15 -10 -12 -14 -18 -18 -14 -11 4 9 -6 5 -24 -8
-18 -12 -32 -19 -32 -15 0 4 -7 -1 -16 -12 -15 -19 -16 -19 -10 1 6 18 4 18
-12 -3 -14 -18 -20 -20 -31 -10 -9 8 -12 9 -7 1 4 -7 -3 -14 -16 -19 -13 -4
-26 -12 -30 -18 -5 -8 -8 -7 -8 2 0 10 -3 10 -14 0 -8 -7 -11 -17 -8 -23 3 -5
-2 -4 -11 4 -13 10 -17 10 -17 1 0 -7 -8 -10 -19 -7 -14 3 -18 1 -14 -10 4
-10 -1 -13 -20 -9 -16 3 -27 -1 -31 -10 -3 -8 -11 -14 -18 -13 -29 3 -49 -2
-43 -11 3 -6 -1 -7 -9 -4 -10 4 -16 1 -16 -7 0 -10 -3 -10 -12 -1 -9 9 -19 6
-42 -16 -16 -15 -26 -21 -22 -14 9 15 -20 17 -29 2 -4 -6 -11 -8 -16 -5 -5 4
-9 1 -9 -6 0 -8 -4 -8 -15 1 -13 11 -14 10 -10 -2 4 -10 0 -15 -12 -15 -35 0
-44 -3 -38 -13 3 -5 2 -10 -4 -10 -5 0 -12 6 -14 13 -4 9 -6 9 -6 -1 -1 -7 -5
-11 -10 -7 -5 3 -17 -2 -25 -11 -10 -9 -16 -11 -16 -4 0 6 -6 10 -12 7 -7 -2
-12 -10 -11 -16 2 -6 -2 -11 -7 -11 -6 0 -10 6 -10 13 0 8 -3 9 -8 1 -4 -6
-15 -10 -25 -8 -9 1 -23 -4 -31 -11 -7 -8 -16 -11 -20 -8 -3 4 -6 0 -6 -8 0
-11 -2 -11 -10 1 -5 8 -10 10 -10 3 0 -6 -9 -9 -20 -6 -12 3 -20 0 -20 -6 0
-7 6 -9 13 -5 6 4 9 3 4 -1 -11 -13 -47 -13 -40 -1 5 7 2 7 -8 0 -8 -6 -24
-10 -36 -9 -16 1 -20 -2 -13 -10 7 -9 -3 -11 -39 -11 -27 1 -49 -3 -48 -7 1
-5 -4 -12 -12 -15 -8 -3 -11 0 -7 6 4 6 -6 5 -20 -3 -15 -8 -31 -12 -36 -9 -4
3 -8 -1 -8 -8 0 -11 -2 -10 -9 0 -7 11 -9 11 -14 -1 -3 -9 -16 -13 -31 -12
-14 2 -29 -1 -32 -7 -4 -6 -10 -5 -15 3 -6 10 -9 11 -9 2 0 -7 -8 -13 -18 -13
-10 0 -22 -3 -26 -7 -12 -12 -36 -12 -36 0 0 7 -4 7 -9 -2 -5 -8 -16 -11 -25
-8 -11 4 -16 1 -16 -11 0 -10 -3 -13 -8 -7 -10 14 -35 18 -26 4 5 -9 -1 -10
-20 -5 -18 4 -26 2 -26 -6 0 -9 -3 -8 -10 2 -6 9 -10 11 -10 3 0 -7 -7 -10
-17 -6 -13 5 -15 2 -10 -13 7 -18 7 -18 -8 0 -13 17 -17 18 -28 6 -10 -10 -9
-11 2 -5 10 6 12 4 7 -4 -6 -9 -13 -8 -27 5 -15 14 -18 14 -14 3 5 -12 -3 -15
-40 -14 -31 1 -45 -2 -42 -9 6 -14 -51 -15 -72 -2 -10 7 -12 6 -6 -4 6 -10 3
-12 -13 -8 -12 4 -22 3 -22 -1 0 -4 -9 -7 -20 -7 -11 0 -20 4 -20 9 0 5 -7 4
-15 -3 -8 -7 -15 -9 -15 -5 0 4 -7 2 -15 -5 -13 -11 -15 -10 -9 6 5 18 5 18
-9 1 -10 -12 -17 -14 -22 -7 -3 5 -11 8 -16 4 -5 -3 -6 -11 -2 -17 5 -8 2 -8
-9 0 -8 7 -18 10 -22 6 -4 -4 -4 1 0 12 7 17 6 18 -8 5 -9 -8 -13 -19 -10 -25
3 -5 -2 -4 -12 4 -21 18 -60 23 -47 7 7 -8 -6 -11 -40 -11 -27 0 -49 4 -49 9
0 5 -6 3 -14 -3 -12 -10 -19 -8 -35 8 -12 12 -21 17 -21 12 0 -9 -6 -10 -50
-11 -26 0 -55 6 -69 15 -10 5 -12 4 -7 -3 4 -7 2 -12 -3 -12 -6 0 -11 4 -11 9
0 4 -10 8 -22 8 -41 1 -49 3 -44 11 3 5 -1 9 -9 9 -8 0 -11 -5 -8 -10 4 -6 1
-7 -8 -1 -17 10 -38 15 -61 15 -10 0 -21 5 -24 11 -5 7 -2 8 6 3 8 -5 11 -4 7
2 -3 5 -22 8 -42 7 -24 -2 -34 0 -29 8 5 7 2 9 -9 5 -10 -4 -16 -2 -14 5 2 11
-2 13 -35 17 -9 1 -8 4 2 11 9 6 10 10 3 10 -6 0 -15 -4 -18 -10 -4 -6 -13 -5
-25 2 -10 7 -17 15 -15 18 2 4 -2 7 -10 8 -8 1 -22 3 -30 4 -8 1 -15 5 -15 10
0 5 -4 6 -10 3 -6 -3 -10 1 -10 9 0 9 -9 16 -21 16 -11 0 -17 5 -14 10 3 6 -3
10 -15 10 -12 0 -19 3 -17 8 3 4 -7 16 -22 27 -19 14 -22 14 -13 3 12 -15 11
-16 -12 -5 -14 7 -20 15 -14 18 6 4 2 10 -11 14 -11 3 -21 11 -21 16 0 5 -15
15 -32 23 -18 8 -26 15 -18 15 9 1 6 7 -10 18 -14 10 -28 17 -32 16 -4 -2 -5
4 -2 11 6 16 -29 39 -42 28 -5 -4 -2 1 6 11 7 10 9 17 4 16 -5 -1 -15 -1 -23
0 -11 1 -11 4 0 18 10 11 10 14 2 9 -7 -4 -13 -2 -13 3 0 6 -7 11 -16 11 -14
0 -14 3 -4 15 11 13 10 14 -4 9 -9 -4 -16 -3 -15 2 4 21 -2 34 -16 34 -8 0
-12 6 -9 14 3 8 -4 24 -16 36 -12 12 -19 28 -16 36 3 8 -1 14 -9 14 -18 0 -20
30 -2 30 6 1 1 7 -12 14 -18 10 -20 15 -10 19 10 4 10 6 2 6 -7 1 -13 12 -13
25 0 13 -5 26 -11 28 -7 2 -12 17 -13 33 -1 17 -5 36 -10 44 -6 10 -5 12 2 7
7 -4 12 -2 12 3 0 6 -4 11 -9 11 -5 0 -12 7 -15 16 -5 14 -4 15 9 4 13 -11 14
-10 9 4 -3 9 -9 16 -13 16 -4 0 -7 10 -6 23 1 12 -2 30 -7 40 -5 10 -5 17 1
17 5 0 9 9 8 20 -1 11 -5 20 -10 20 -4 0 -5 6 -1 12 12 19 12 48 1 48 -6 0 -6
5 0 13 6 6 9 21 7 32 -1 10 3 26 9 34 8 10 8 13 1 8 -22 -13 -23 21 -2 35 17
11 19 16 8 23 -9 6 -11 4 -5 -5 6 -9 4 -11 -4 -6 -10 6 -9 12 1 24 8 10 14 35
13 57 0 27 6 45 19 56 15 12 16 18 6 24 -8 5 -11 4 -6 -3 3 -6 2 -13 -3 -16
-12 -8 -8 13 7 40 6 12 8 24 5 28 -4 3 2 13 13 22 10 8 13 13 7 9 -7 -3 -13
-1 -13 4 0 6 5 11 10 11 6 0 10 6 9 13 -3 27 1 38 14 31 7 -5 7 -2 -2 10 -11
13 -11 16 -1 14 7 -2 15 3 18 11 3 10 0 11 -9 5 -12 -7 -12 -5 -1 9 8 9 10 22
6 29 -6 9 -3 9 10 -1 15 -13 17 -12 12 12 -3 17 0 26 7 24 7 -1 13 11 15 26 3
21 8 27 19 23 13 -5 13 -4 4 8 -9 11 -8 15 3 19 9 4 13 15 11 26 -2 14 1 18
10 15 10 -4 13 0 10 16 -4 18 -2 20 11 9 12 -10 13 -9 8 5 -4 10 -1 16 7 16
11 0 11 3 -1 10 -13 9 -13 10 0 11 8 1 18 1 22 0 4 0 5 5 2 13 -3 8 0 17 5 21
6 3 9 11 6 16 -3 5 1 6 10 3 11 -4 14 -2 10 9 -4 9 4 23 21 36 15 11 23 21 19
21 -5 0 5 11 21 25 16 14 25 25 20 25 -6 0 -1 7 10 15 15 12 16 16 5 24 -11 7
-11 9 0 14 11 4 11 6 1 6 -7 1 -11 5 -7 10 3 5 -4 16 -15 24 -11 7 -17 18 -12
23 4 4 -1 2 -10 -5 -16 -12 -18 -11 -18 5 0 17 -1 17 -16 -2 -8 -10 -13 -12
-9 -4 4 8 -1 6 -9 -4 -9 -11 -16 -23 -16 -28 0 -4 -6 -8 -13 -8 -7 0 -18 -9
-25 -20 -7 -12 -18 -18 -24 -14 -7 5 -9 2 -5 -9 4 -12 1 -15 -14 -12 -11 2
-17 0 -14 -4 3 -5 -2 -11 -10 -15 -8 -3 -15 -13 -15 -21 0 -9 -4 -13 -10 -10
-9 6 -15 -8 -11 -29 1 -5 -6 -6 -15 -2 -13 5 -15 2 -11 -15 4 -15 2 -19 -9
-15 -8 3 -14 1 -14 -5 0 -6 -6 -7 -12 -3 -10 6 -10 4 0 -8 11 -14 10 -17 -5
-22 -10 -3 -24 -19 -31 -36 -8 -17 -17 -28 -22 -25 -4 3 -14 -3 -21 -12 -10
-12 -10 -14 -1 -9 25 15 11 -10 -15 -28 -16 -9 -21 -15 -12 -13 9 3 16 -1 16
-8 0 -8 -7 -11 -15 -7 -12 4 -14 0 -9 -17 5 -19 3 -20 -11 -9 -12 10 -14 10
-8 1 4 -8 2 -13 -4 -13 -6 0 -8 -4 -5 -10 8 -13 -19 -52 -29 -42 -5 4 -6 -2
-4 -13 2 -12 -2 -19 -9 -18 -7 2 -10 -4 -7 -12 4 -8 1 -15 -6 -15 -6 0 -8 -4
-5 -10 3 -5 -1 -10 -9 -10 -10 0 -13 -6 -10 -15 4 -9 0 -15 -7 -15 -11 0 -11
-3 1 -10 11 -7 11 -10 2 -10 -7 0 -10 -5 -6 -12 4 -6 3 -8 -4 -4 -6 3 -13 2
-17 -4 -3 -5 -1 -10 6 -10 7 0 2 -11 -11 -25 -13 -14 -18 -25 -12 -25 7 0 3
-9 -8 -20 -11 -11 -20 -25 -20 -31 0 -5 -4 -8 -8 -5 -4 2 -9 -5 -9 -17 -3 -38
-13 -68 -22 -63 -4 3 -7 -10 -6 -28 0 -21 -4 -32 -11 -29 -6 2 -11 -2 -11 -9
0 -7 -4 -22 -9 -32 -6 -15 -4 -17 7 -11 12 8 12 6 0 -8 -7 -9 -17 -14 -22 -12
-4 3 -6 -4 -4 -15 2 -11 0 -20 -6 -20 -5 0 -9 -5 -9 -11 0 -5 5 -7 12 -3 7 5
8 3 4 -5 -5 -7 -13 -10 -20 -8 -9 4 -11 -4 -8 -26 3 -21 -1 -34 -14 -44 -13
-10 -14 -13 -3 -13 12 0 12 -2 0 -9 -7 -5 -10 -14 -7 -20 4 -6 2 -11 -4 -11
-6 0 -8 -4 -5 -10 3 -5 1 -10 -4 -10 -6 0 -11 -5 -11 -11 0 -5 4 -8 9 -4 5 3
13 0 17 -6 4 -7 3 -9 -4 -5 -15 9 -26 -13 -25 -51 0 -19 -4 -36 -10 -40 -6 -4
-7 -1 -2 7 5 9 4 11 -3 6 -7 -4 -10 -17 -8 -29 1 -12 -4 -28 -13 -35 -14 -12
-14 -13 3 -8 15 5 17 4 8 -7 -7 -8 -8 -18 -4 -22 4 -5 2 -5 -5 -1 -8 4 -12 -6
-11 -35 0 -25 -5 -45 -13 -50 -12 -7 -11 -9 1 -9 13 0 13 -1 0 -10 -8 -5 -10
-10 -4 -10 6 0 11 -7 11 -15 0 -12 -3 -12 -15 -2 -13 10 -14 9 -4 -10 10 -17
9 -22 -4 -27 -11 -4 -13 -10 -7 -19 8 -11 9 -25 3 -44 -6 -20 -4 -39 5 -45 7
-6 7 -11 0 -15 -13 -10 -18 -43 -7 -43 5 0 9 -7 9 -15 0 -13 -4 -12 -21 2 -12
10 -15 11 -8 3 13 -15 17 -34 4 -27 -4 3 -8 -24 -8 -59 -1 -59 2 -68 27 -66 3
1 6 -5 6 -13 0 -8 -4 -12 -9 -9 -4 3 -8 -4 -8 -15 0 -11 4 -22 10 -26 5 -3 7
-12 3 -21 -4 -10 -9 -11 -18 -4 -8 7 -12 5 -12 -5 0 -7 5 -13 10 -12 5 1 12
-4 15 -12 2 -8 0 -11 -6 -7 -6 3 -14 2 -17 -4 -4 -6 -3 -10 2 -9 4 1 15 1 23
0 13 -1 13 -2 0 -11 -10 -6 -11 -10 -2 -10 6 0 12 -5 12 -11 0 -5 -5 -7 -12
-3 -7 5 -8 3 -2 -7 4 -8 9 -23 9 -34 0 -11 4 -26 9 -34 6 -9 5 -12 0 -8 -6 3
-9 -8 -8 -26 1 -17 7 -33 13 -35 6 -2 11 -8 11 -13 0 -6 -6 -7 -12 -3 -8 4 -7
-1 2 -12 9 -10 15 -31 14 -46 0 -16 4 -28 10 -28 6 0 4 -5 -4 -10 -12 -8 -12
-10 5 -10 17 0 17 -2 5 -10 -11 -7 -11 -10 -2 -10 7 0 10 -5 7 -10 -3 -6 1
-17 9 -25 8 -9 13 -22 10 -29 -3 -8 -1 -17 5 -20 6 -4 8 -13 4 -21 -3 -9 0
-21 6 -29 6 -7 8 -16 4 -19 -3 -4 -1 -7 5 -7 7 0 12 -9 12 -21 0 -15 5 -19 16
-15 10 4 13 2 7 -7 -12 -19 -12 -36 -1 -44 7 -4 8 -1 3 8 -8 12 -6 12 9 0 13
-11 14 -16 4 -22 -9 -6 -8 -10 5 -15 9 -3 14 -11 10 -17 -4 -6 0 -8 10 -4 14
5 15 2 6 -20 -7 -20 -7 -24 5 -20 9 4 16 -3 20 -19 4 -13 11 -24 17 -24 6 0 7
-5 4 -10 -3 -5 0 -10 8 -10 24 0 39 -24 24 -39 -9 -10 -9 -12 3 -9 10 2 14 -3
12 -15 -2 -9 1 -17 5 -16 23 4 35 -2 30 -15 -4 -10 -1 -13 9 -9 9 3 14 0 12
-8 -2 -8 2 -13 9 -12 6 2 15 -6 18 -17 4 -11 13 -20 21 -20 8 0 12 -4 9 -10
-3 -5 1 -10 10 -10 9 0 13 -4 10 -10 -3 -6 -2 -10 4 -10 15 0 60 -48 52 -57
-3 -4 2 -1 12 6 12 10 17 10 17 2 0 -7 4 -9 10 -6 6 3 10 1 10 -4 0 -21 32
-48 55 -46 15 2 25 -3 28 -15 4 -14 11 -17 27 -13 15 4 21 2 17 -4 -4 -6 0
-16 8 -23 13 -11 14 -10 9 5 -6 15 -4 15 14 4 11 -7 19 -17 16 -21 -3 -4 1 -5
9 -3 7 3 23 -3 36 -14 12 -11 31 -18 42 -16 10 2 19 -2 19 -8 0 -7 4 -6 10 3
6 10 10 11 10 3 0 -7 7 -13 16 -13 9 0 12 -5 8 -12 -5 -9 -3 -9 9 1 14 11 18
11 22 -1 4 -10 16 -14 36 -12 20 3 28 0 23 -7 -4 -7 0 -9 14 -5 14 5 24 1 31
-11 6 -10 11 -12 11 -5 0 6 5 12 11 12 5 0 8 -4 5 -8 -2 -4 7 -9 20 -10 17 -1
23 2 19 11 -4 6 -1 5 7 -3 8 -10 31 -15 66 -15 29 1 58 -5 63 -11 5 -7 19 -9
31 -6 16 4 19 2 13 -8 -6 -9 -4 -11 5 -5 20 12 60 12 60 0 0 -6 3 -7 8 0 8 12
73 14 66 3 -5 -7 4 -10 22 -7 4 0 11 -5 16 -13 8 -10 9 -10 5 2 -2 8 -10 14
-16 12 -7 -1 -10 2 -6 8 4 7 12 7 25 0 13 -7 21 -7 25 0 5 8 11 8 19 1 9 -7
17 -7 26 2 10 9 11 9 6 0 -5 -9 0 -13 13 -13 12 0 21 6 21 13 0 9 2 9 9 -1 11
-17 21 -17 32 0 7 10 9 10 9 0 0 -9 6 -10 18 -5 21 11 73 10 90 0 7 -5 12 -3
12 4 0 8 4 9 13 0 10 -8 17 -7 25 1 9 9 12 9 12 -1 0 -10 3 -11 14 -2 11 9 15
9 19 -1 4 -10 6 -10 6 0 1 7 15 12 36 12 21 0 35 5 35 13 0 9 3 8 9 -2 6 -9
10 -10 16 -2 4 7 16 9 27 5 12 -3 18 -2 15 3 -3 5 9 8 28 7 19 -2 37 1 40 7 4
5 11 7 16 4 5 -4 9 -2 9 3 0 5 11 7 25 4 14 -2 33 2 42 9 12 10 14 10 9 2 -4
-7 -3 -13 3 -13 5 0 13 5 16 10 4 6 11 8 16 5 5 -4 9 0 9 7 0 9 3 9 10 -2 5
-8 10 -10 10 -5 0 6 11 11 25 13 14 1 36 3 49 5 13 1 22 5 19 10 -2 4 -1 7 4
8 4 0 19 3 33 5 39 7 44 7 60 2 8 -3 12 -3 8 -1 -15 9 -8 22 9 16 9 -4 14 -2
11 3 -4 5 5 10 18 10 13 1 21 -2 18 -7 -3 -5 2 -6 10 -3 9 3 13 10 10 15 -3 5
2 9 11 9 10 0 14 -5 10 -12 -4 -7 -1 -6 7 3 7 9 21 15 31 13 9 -1 17 2 17 7 0
6 5 7 10 4 6 -3 10 -1 10 5 0 6 5 8 10 5 6 -3 10 -1 10 6 0 7 10 9 25 7 13 -3
22 -1 19 3 -3 5 1 10 8 11 7 0 18 2 23 3 6 2 16 3 23 4 7 0 10 6 7 11 -3 6 -1
10 4 10 6 0 11 -6 11 -12 0 -10 3 -9 9 1 5 7 14 10 20 7 6 -4 11 -2 11 4 0 6
4 9 9 6 5 -3 12 1 15 10 5 14 9 14 23 3 9 -8 14 -9 10 -3 -4 7 0 15 9 18 8 3
12 2 9 -4 -3 -6 1 -7 9 -4 9 3 13 11 9 17 -4 6 0 8 10 4 10 -4 17 -1 17 6 0 8
4 6 10 -3 9 -13 14 -8 12 12 -1 3 5 9 14 12 10 4 13 2 8 -7 -5 -9 -4 -9 7 1 7
6 21 12 31 12 9 0 21 7 26 16 5 9 12 15 15 15 21 -3 27 0 21 12 -5 8 -2 8 9
-2 13 -10 17 -10 17 -1 0 7 7 10 16 6 14 -5 15 -4 4 9 -11 13 -10 14 4 9 10
-4 16 -1 16 7 0 11 3 11 10 -1 6 -9 10 -11 10 -3 0 7 6 10 14 7 8 -3 17 0 22
7 5 8 3 10 -6 4 -9 -5 -11 -4 -6 4 5 7 16 9 28 5 16 -5 20 -3 15 9 -4 11 0 13
13 10 11 -3 26 4 36 16 10 12 23 21 29 21 5 0 3 -5 -5 -10 -10 -7 -11 -10 -2
-10 7 0 15 7 19 16 5 13 7 13 14 2 7 -10 9 -9 9 4 0 11 5 15 14 12 7 -3 27 8
43 24 22 23 33 28 46 21 13 -8 15 -6 10 7 -4 12 -3 15 5 10 7 -4 12 -2 12 5 0
8 4 8 15 -1 13 -11 14 -10 8 5 -5 15 -3 17 11 12 13 -5 17 -3 13 7 -4 10 0 12
15 8 14 -3 19 -1 14 6 -5 8 -2 10 8 6 9 -3 16 -1 16 6 0 6 5 8 12 4 8 -5 9 -1
4 12 -6 15 -4 16 5 7 9 -9 15 -8 26 3 8 8 20 11 26 7 6 -4 8 0 4 11 -5 14 -3
15 13 6 16 -9 18 -8 14 5 -5 11 -2 13 10 9 9 -3 16 -2 16 4 0 10 47 27 63 23
5 -1 6 3 2 9 -3 6 -11 7 -17 4 -7 -4 -8 -2 -4 4 4 7 15 12 25 12 9 0 27 9 39
20 12 12 22 16 22 10 0 -5 5 -10 11 -10 5 0 8 4 4 9 -7 12 35 42 48 34 6 -4 7
-1 2 7 -6 10 -4 12 9 7 14 -6 17 -3 12 8 -3 9 -2 14 3 10 5 -3 16 1 24 9 11
11 17 12 26 3 9 -9 11 -8 5 7 -6 16 -4 18 10 13 10 -4 15 -3 11 3 -3 6 1 10
10 10 9 0 13 5 10 10 -3 6 -2 10 4 10 5 0 12 -6 14 -12 3 -7 6 -3 6 9 1 16 6
21 16 17 10 -4 15 0 15 12 0 15 2 16 9 5 7 -11 12 -8 26 13 9 14 21 23 26 20
5 -3 9 0 9 6 0 7 7 9 16 6 8 -3 12 -2 9 4 -3 6 5 14 19 20 14 5 26 14 26 20 0
6 5 8 10 5 6 -3 10 -1 10 5 0 6 5 8 12 4 7 -5 9 -2 6 7 -4 10 1 15 15 16 11 1
27 10 36 19 15 17 15 17 -4 3 -18 -13 -19 -13 -7 3 7 9 22 15 32 13 12 -2 29
7 43 25 19 22 27 26 36 17 9 -9 11 -8 6 6 -5 12 -2 17 10 17 9 0 14 4 10 9 -3
6 3 8 15 6 11 -2 19 1 17 8 -1 7 4 11 11 10 6 -2 12 3 12 11 0 7 8 20 18 27
15 12 16 12 7 -1 -5 -9 -2 -7 7 3 10 11 15 23 12 28 -3 5 3 6 12 2 13 -5 16
-3 11 10 -4 11 -2 14 8 11 7 -3 16 3 20 15 3 12 11 21 17 21 5 0 8 7 4 15 -3
8 -2 14 2 14 4 -1 14 -1 22 0 13 1 13 2 0 11 -13 8 -12 10 3 10 10 0 15 5 12
10 -3 6 -1 10 4 10 6 0 10 3 8 8 -1 4 2 8 7 9 14 2 25 25 21 44 -3 13 1 16 12
12 13 -5 15 -2 10 11 -4 10 -3 15 3 11 6 -3 10 3 10 15 0 14 4 19 12 14 7 -5
9 -2 5 9 -3 9 0 18 9 21 8 3 14 11 13 18 -3 26 1 39 11 33 6 -3 10 1 10 10 0
9 4 13 10 10 6 -3 7 1 4 9 -3 9 -1 16 5 16 6 0 8 7 4 17 -4 11 -3 14 5 9 7 -4
12 -2 12 5 0 19 33 89 42 89 4 0 4 7 1 17 -4 11 -3 14 6 9 8 -6 11 -2 9 10 -2
12 2 18 11 16 12 -3 12 0 1 12 -11 15 -7 20 13 17 5 -1 6 3 2 9 -3 5 0 10 7
10 10 0 9 3 -2 10 -12 8 -12 10 3 16 15 5 15 9 5 22 -9 10 -9 13 -1 9 14 -9
28 27 17 45 -6 10 -5 10 7 1 12 -10 15 -7 17 20 2 17 8 36 14 42 8 7 9 6 3 -4
-6 -10 -4 -12 4 -7 9 6 9 11 0 22 -9 11 -9 14 0 14 7 0 9 5 6 10 -3 6 -1 10 6
10 7 0 10 3 6 6 -9 9 14 64 25 58 6 -4 5 2 -1 15 -10 18 -9 20 5 14 11 -4 15
-2 10 5 -3 6 2 33 13 60 15 38 17 52 8 61 -9 9 -8 11 6 6 14 -6 17 -2 17 25 0
22 4 29 13 24 6 -4 9 -4 5 1 -4 4 -2 15 5 23 9 13 9 14 0 8 -7 -4 -13 -2 -13
3 0 6 5 11 10 11 6 0 9 3 9 8 -1 4 0 9 1 12 2 6 7 31 13 73 2 15 7 30 11 34 3
3 0 13 -7 21 -9 12 -9 14 0 9 9 -6 11 4 10 33 -3 40 1 46 19 33 5 -5 2 -1 -8
8 -16 15 -16 17 5 28 12 6 14 9 5 7 -13 -4 -18 0 -18 15 0 22 -24 52 -33 42
-4 -3 -4 4 -2 17 4 19 2 20 -12 8 -15 -11 -16 -11 -10 5 4 10 3 16 -2 12 -5
-3 -12 -1 -16 5 -4 6 -11 8 -16 5 -5 -4 -9 -1 -9 4 0 6 -5 11 -11 11 -7 0 -18
8 -26 18 -8 9 -11 11 -8 4 6 -11 3 -12 -14 -2 -12 6 -19 15 -16 20 3 5 0 12
-6 16 -8 4 -9 3 -5 -4 11 -18 -13 -14 -31 4 -9 8 -22 13 -29 10 -13 -5 -19 6
-15 27 1 5 -3 6 -9 2 -6 -3 -7 -12 -3 -18 3 -7 -2 -4 -13 5 -10 9 -22 17 -26
17 -5 1 -10 2 -13 2 -3 1 -11 2 -17 3 -7 1 -12 8 -10 16 3 11 0 11 -12 0 -12
-9 -16 -9 -16 -1 0 7 -4 9 -10 6 -5 -3 -10 -1 -10 4 0 6 -9 11 -19 11 -11 0
-22 4 -26 10 -3 5 -12 7 -19 4 -7 -3 -20 2 -29 10 -19 19 -31 21 -21 4 4 -7
-3 -4 -16 7 -15 13 -21 15 -16 5 5 -9 2 -9 -7 2 -10 13 -16 15 -25 6 -9 -9
-12 -9 -12 1 0 7 -4 10 -10 6 -5 -3 -18 3 -28 13 -13 13 -25 16 -40 11 -12 -5
-21 -5 -21 -1 3 19 -3 22 -21 12 -11 -6 -19 -7 -18 -3 2 4 -1 9 -6 10 -5 1
-13 7 -17 15 -7 10 -9 10 -9 1 0 -7 -5 -13 -11 -13 -6 0 -9 6 -6 13 3 8 -1 14
-9 14 -7 0 -10 -5 -7 -11 4 -6 -1 -5 -10 2 -9 8 -21 11 -27 7 -5 -3 -10 -1
-10 6 0 7 -3 9 -7 6 -3 -4 -15 1 -26 10 -10 10 -21 17 -23 16 -2 -2 -7 -3 -11
-2 -5 1 -24 0 -43 -1 -28 -2 -32 1 -23 12 10 11 4 13 -29 10 -32 -4 -39 -2
-32 9 6 10 3 10 -11 -1 -10 -8 -16 -10 -12 -4 8 14 -15 24 -42 19 -11 -2 -22
3 -25 10 -3 8 -13 11 -27 8 -17 -5 -20 -3 -14 8 7 11 6 12 -6 2 -12 -10 -18
-10 -29 0 -10 10 -11 9 -5 -2 5 -8 -13 0 -38 19 -26 18 -47 37 -47 41 0 5 -8
6 -17 3 -15 -5 -15 -4 -4 4 10 7 12 14 5 24 -12 15 -12 28 0 47 6 10 5 12 -2
7 -19 -12 -14 2 11 25 12 12 16 19 9 14 -11 -6 -11 -3 0 14 7 12 18 21 25 21
7 0 13 5 13 10 0 6 7 10 15 10 8 0 15 5 15 11 0 8 4 8 14 0 11 -9 14 -8 12 6
-1 12 5 17 17 15 9 -2 17 2 17 9 0 8 4 8 15 -1 13 -11 14 -10 9 5 -5 13 -4 16
4 11 7 -4 12 -2 12 6 0 9 3 9 10 -2 7 -12 10 -12 10 -1 0 8 6 11 16 7 8 -3 26
1 39 10 14 9 31 14 39 11 8 -3 16 -1 19 6 3 11 43 18 100 17 15 0 27 4 27 10
0 5 5 10 11 10 5 0 8 -4 5 -9 -4 -5 3 -7 14 -4 11 3 20 10 20 15 0 5 -5 6 -12
2 -7 -4 -8 -3 -4 5 10 16 39 -6 29 -23 -3 -6 6 0 22 14 16 14 24 18 20 10 -8
-13 -7 -13 10 0 42 33 71 67 67 80 -3 7 0 10 7 6 10 -7 16 7 12 28 -1 5 5 3
14 -4 13 -11 14 -10 9 5 -5 13 -4 16 5 10 11 -6 11 -3 0 16 -11 22 -11 23 5
10 14 -12 16 -12 11 1 -4 9 1 18 11 22 13 5 14 9 4 21 -11 13 -10 14 3 10 8
-4 18 -1 23 6 5 8 3 10 -5 4 -10 -5 -9 -2 0 13 7 12 16 19 20 16 5 -2 6 5 4
16 -2 11 1 20 6 20 6 0 7 5 4 10 -3 6 2 10 12 10 15 0 16 2 3 10 -13 8 -12 10
3 10 10 0 15 4 12 10 -7 11 19 53 28 44 3 -3 4 6 3 20 -2 17 3 31 14 39 9 7
16 20 14 29 -1 10 3 15 11 12 7 -3 16 0 21 7 4 8 3 10 -4 5 -7 -4 -12 -1 -12
8 0 8 5 18 12 22 7 5 8 3 3 -6 -5 -8 -4 -11 3 -7 5 4 8 17 4 29 -4 16 -2 19 8
13 10 -6 12 -4 7 8 -3 9 0 18 9 21 8 3 14 10 14 16 0 6 -6 8 -12 4 -7 -3 -2 4
12 17 14 13 20 20 13 15 -10 -6 -12 -4 -7 8 3 9 10 16 15 16 5 0 8 6 7 13 -2
6 2 11 9 10 7 -2 10 3 7 11 -3 8 -1 17 5 20 6 4 8 13 4 22 -3 8 -2 14 3 13 21
-4 28 2 14 11 -10 6 -11 10 -2 10 6 0 12 7 12 15 0 8 4 15 10 15 5 0 6 7 3 17
-5 11 -3 14 6 8 10 -6 11 -2 6 15 -5 17 -4 21 6 15 9 -6 11 -3 6 8 -4 10 -2
17 4 17 6 0 8 7 5 16 -3 8 -2 13 3 10 5 -3 12 1 15 10 3 8 2 12 -3 9 -5 -3
-13 0 -17 6 -4 7 -3 9 3 6 6 -4 16 0 23 8 10 12 10 15 -1 15 -12 0 -12 2 0 9
8 5 10 14 5 22 -6 11 -5 12 7 2 13 -11 15 -7 14 27 -1 25 3 40 10 40 6 0 12 6
12 14 0 8 -6 12 -13 9 -9 -3 -12 2 -9 16 5 27 -11 37 -67 43 -10 1 -18 6 -18
11 0 5 7 7 15 3 8 -3 15 -1 15 4 0 5 -18 8 -39 7 -22 0 -37 -5 -34 -11 4 -5 1
-6 -8 0 -20 12 -40 14 -33 3z m-691 -1209 c3 -5 1 -10 -4 -10 -6 0 -11 5 -11
10 0 6 2 10 4 10 3 0 8 -4 11 -10z m-195 -300 c0 -5 -2 -10 -4 -10 -3 0 -8 5
-11 10 -3 6 -1 10 4 10 6 0 11 -4 11 -10z m384 -108 c3 -5 -1 -9 -9 -9 -8 0
-12 4 -9 9 3 4 7 8 9 8 2 0 6 -4 9 -8z m-1044 -952 c0 -5 -2 -10 -4 -10 -3 0
-8 5 -11 10 -3 6 -1 10 4 10 6 0 11 -4 11 -10z m-3087 -604 c3 -8 0 -20 -8
-26 -11 -9 -13 -7 -10 7 2 10 4 21 4 26 1 12 8 8 14 -7z m-1 -64 c-7 -2 -10
-8 -7 -12 3 -5 2 -11 -3 -14 -4 -2 -8 6 -8 19 0 16 4 21 15 17 10 -4 11 -7 3
-10z m28 -332 c0 -5 -5 -10 -11 -10 -5 0 -7 5 -4 10 3 6 8 10 11 10 2 0 4 -4
4 -10z m724 -956 c3 -8 2 -12 -4 -9 -6 3 -10 10 -10 16 0 14 7 11 14 -7z"/>
<path d="M4805 7000 c-3 -5 -1 -10 4 -10 6 0 11 5 11 10 0 6 -2 10 -4 10 -3 0
-8 -4 -11 -10z"/>
<path d="M2355 6920 c-3 -5 -1 -10 4 -10 6 0 11 5 11 10 0 6 -2 10 -4 10 -3 0
-8 -4 -11 -10z"/>
<path d="M4375 4961 c-3 -5 -2 -12 3 -15 5 -3 9 1 9 9 0 17 -3 19 -12 6z"/>
<path d="M7675 4860 c-3 -5 -1 -10 4 -10 6 0 11 5 11 10 0 6 -2 10 -4 10 -3 0
-8 -4 -11 -10z"/>
<path d="M3830 4356 c0 -2 8 -10 18 -17 15 -13 16 -12 3 4 -13 16 -21 21 -21
13z"/>
<path d="M5870 4220 c0 -5 5 -10 11 -10 5 0 7 5 4 10 -3 6 -8 10 -11 10 -2 0
-4 -4 -4 -10z"/>
<path d="M5350 4199 c0 -5 5 -7 10 -4 6 3 10 8 10 11 0 2 -4 4 -10 4 -5 0 -10
-5 -10 -11z"/>
<path d="M4090 3536 c0 -2 7 -7 16 -10 8 -3 12 -2 9 4 -6 10 -25 14 -25 6z"/>
<path d="M5282 3027 c-8 -10 -6 -13 11 -14 12 0 16 1 9 4 -6 3 -10 9 -6 14 8
14 -2 11 -14 -4z"/>
<path d="M5443 3033 c-15 -5 -17 -23 -4 -23 5 0 11 7 15 15 3 8 4 15 3 14 -1
0 -8 -3 -14 -6z"/>
<path d="M5475 3031 c-3 -5 -2 -12 3 -15 5 -3 9 1 9 9 0 17 -3 19 -12 6z"/>
<path d="M5358 3019 c-7 -4 2 -7 20 -5 17 1 34 4 36 7 8 8 -43 6 -56 -2z"/>
<path d="M3615 2610 c3 -5 8 -10 11 -10 2 0 4 5 4 10 0 6 -5 10 -11 10 -5 0
-7 -4 -4 -10z"/>
<path d="M3850 2590 c0 -5 5 -10 11 -10 5 0 7 5 4 10 -3 6 -8 10 -11 10 -2 0
-4 -4 -4 -10z"/>
<path d="M6419 2463 c-13 -16 -12 -17 4 -4 16 13 21 21 13 21 -2 0 -10 -8 -17
-17z"/>
</g>
</svg>
